<?xml version="1.0" standalone="no"?>
<!DOCTYPE svg PUBLIC "-//W3C//DTD SVG 20010904//EN"
 "http://www.w3.org/TR/2001/REC-SVG-20010904/DTD/svg10.dtd">
<svg version="1.0" xmlns="http://www.w3.org/2000/svg"
 width="16.000000pt" height="16.000000pt" viewBox="0 0 16.000000 16.000000"
 preserveAspectRatio="xMidYMid meet">
<metadata>
Created by potrace 1.11, written by Peter Selinger 2001-2013
</metadata>
<g transform="translate(0.000000,16.000000) scale(0.002286,-0.002286)"
fill="#000000" stroke="none">
<path d="M6394 6956 c11 -9 14 -16 7 -16 -7 0 -9 -5 -5 -12 4 -6 3 -8 -4 -4
-5 3 -13 0 -15 -6 -4 -10 -6 -10 -6 0 -1 6 -8 12 -17 12 -10 0 -14 -6 -11 -14
4 -10 1 -13 -9 -9 -7 3 -14 -1 -14 -8 0 -7 -3 -9 -6 -6 -4 4 -1 15 7 24 7 10
9 15 5 11 -5 -4 -15 0 -22 9 -11 16 -12 14 -7 -9 5 -27 -11 -46 -23 -27 -4 7
-3 9 3 6 5 -3 10 0 10 8 0 11 -4 12 -13 4 -6 -5 -10 -20 -7 -32 4 -21 3 -20
-12 3 -10 15 -14 18 -11 7 4 -12 2 -17 -6 -14 -7 2 -12 11 -10 18 1 8 -6 4
-17 -8 -10 -12 -22 -19 -26 -15 -5 4 -5 2 -1 -5 4 -7 -2 -17 -14 -23 -11 -6
-17 -16 -14 -22 4 -7 3 -8 -5 -4 -6 4 -9 11 -6 16 3 4 -2 10 -10 13 -11 5 -12
1 -5 -19 6 -15 6 -23 1 -19 -5 3 -16 -3 -23 -14 -11 -15 -15 -16 -25 -5 -10
10 -10 13 0 17 9 3 8 8 -3 18 -8 8 -11 10 -7 5 11 -14 -12 -36 -31 -29 -15 4
-15 3 -2 -6 14 -10 7 -16 -13 -12 -5 1 -6 -3 -2 -9 5 -9 -7 -14 -27 -12 -3 1
-9 -5 -12 -13 -3 -10 0 -12 12 -9 15 5 15 4 -1 -6 -9 -6 -22 -8 -27 -5 -6 3
-10 -1 -10 -10 0 -9 -5 -13 -10 -10 -6 4 -7 11 -4 17 4 7 2 8 -5 4 -6 -4 -9
-12 -6 -17 4 -5 -3 -9 -14 -9 -12 0 -21 -4 -21 -10 0 -5 6 -7 14 -4 8 3 17 0
22 -7 4 -8 3 -10 -4 -5 -6 4 -22 0 -36 -9 -22 -15 -25 -15 -34 0 -8 16 -9 16
-15 1 -4 -10 -3 -15 2 -12 5 3 11 0 14 -8 4 -9 -2 -12 -19 -10 -16 1 -24 -2
-21 -9 2 -7 12 -11 22 -10 12 1 14 -2 6 -10 -7 -7 -16 -5 -32 8 -15 15 -20 16
-17 5 2 -9 -5 -15 -17 -15 -11 0 -19 6 -17 13 1 8 -2 11 -9 6 -9 -5 -5 -13 10
-26 13 -10 19 -18 13 -18 -6 0 -18 -3 -26 -6 -12 -5 -15 -2 -10 12 5 15 4 16
-4 4 -7 -9 -7 -19 -2 -25 6 -8 0 -10 -20 -9 -17 1 -28 -2 -25 -7 3 -4 13 -5
23 -2 11 4 9 -1 -7 -15 -29 -27 -32 -27 -25 -4 5 15 4 15 -6 -1 -10 -15 -9
-21 5 -31 15 -11 14 -12 -12 -12 -18 1 -27 -4 -25 -12 2 -10 -2 -10 -19 -1
-20 10 -21 9 -17 -15 3 -14 2 -23 -3 -21 -4 3 -10 -1 -13 -7 -3 -7 -3 -1 -1
15 2 16 0 25 -6 22 -5 -4 -7 -10 -4 -15 3 -5 1 -11 -5 -15 -6 -4 -7 -12 -3
-18 3 -7 -3 -4 -14 6 -25 22 -40 23 -18 1 9 -9 13 -19 10 -22 -3 -4 -10 0 -15
8 -7 11 -10 12 -10 2 0 -7 -4 -10 -10 -7 -6 3 -7 -1 -3 -10 4 -12 8 -13 13 -5
4 7 10 8 13 4 3 -5 -7 -18 -22 -29 -20 -15 -23 -15 -12 -2 8 10 9 17 3 17 -6
0 -15 -8 -21 -17 -9 -17 -11 -17 -26 2 -15 19 -15 19 -4 -7 7 -15 16 -25 20
-22 5 3 9 0 9 -5 0 -16 -11 -13 -33 7 -19 17 -20 16 -8 -6 7 -13 10 -26 7 -30
-3 -3 -6 -1 -6 5 0 6 -7 13 -15 17 -8 3 -14 1 -12 -4 1 -5 -7 -16 -18 -25 -11
-9 -14 -14 -7 -10 7 4 12 0 12 -10 0 -9 -4 -13 -10 -10 -10 6 -14 -6 -11 -35
2 -13 1 -13 -8 0 -6 8 -8 24 -4 35 5 18 5 18 -12 2 -13 -14 -14 -21 -6 -31 8
-9 8 -16 2 -20 -5 -4 -15 2 -21 11 -10 16 -10 16 -5 -3 5 -19 2 -21 -27 -18
-23 3 -29 1 -18 -5 8 -6 19 -7 25 -3 5 3 4 -2 -4 -11 -15 -19 -26 -23 -15 -5
4 7 3 8 -4 4 -6 -4 -9 -13 -5 -21 3 -9 -1 -15 -11 -15 -10 0 -13 6 -10 15 4 8
1 15 -5 15 -6 0 -10 -6 -8 -12 1 -7 -4 -12 -10 -11 -7 2 -12 -3 -10 -10 1 -6
-4 -11 -11 -9 -8 1 -11 -1 -8 -6 6 -10 -10 -37 -24 -38 -5 -1 -16 -2 -22 -3
-9 -1 -9 -4 2 -11 10 -6 20 -4 33 7 17 16 17 16 11 -1 -4 -9 -20 -20 -36 -23
-21 -4 -27 -10 -23 -21 7 -20 -14 -33 -35 -22 -13 7 -16 3 -14 -20 2 -33 -19
-59 -32 -39 -5 8 -3 9 6 4 9 -6 11 -4 5 5 -6 9 -4 11 5 5 9 -5 11 -4 6 3 -5 9
-12 8 -26 0 -11 -7 -16 -15 -12 -18 4 -3 14 -14 22 -25 12 -16 9 -15 -20 5
-24 17 -31 19 -21 6 13 -16 13 -17 0 -14 -15 3 -19 -2 -19 -27 0 -9 6 -12 18
-9 13 5 14 4 3 -4 -18 -13 -43 -4 -35 12 3 6 -2 2 -10 -8 -9 -11 -16 -23 -16
-28 0 -4 -8 -4 -17 -1 -15 6 -16 5 -3 -9 8 -9 17 -14 20 -13 3 2 6 -5 6 -16 0
-19 -1 -19 -13 -3 -12 16 -18 12 -14 -9 1 -5 -3 -6 -9 -2 -6 3 -8 10 -5 15 3
5 0 12 -6 16 -7 4 -9 3 -5 -4 3 -6 -1 -18 -10 -27 -13 -13 -14 -16 -3 -15 8 1
21 2 29 1 13 -1 13 -3 1 -10 -8 -5 -21 -7 -30 -3 -9 3 -13 1 -8 -3 8 -9 -20
-45 -36 -45 -5 0 0 8 12 18 16 13 18 21 11 32 -9 12 -10 12 -8 -5 2 -13 -2
-20 -13 -19 -12 1 -16 -6 -14 -27 2 -20 -1 -26 -11 -22 -8 3 -14 -1 -14 -11 0
-9 -6 -13 -13 -10 -8 3 -14 -2 -14 -11 0 -9 6 -14 14 -11 7 3 13 3 13 0 0 -2
-12 -9 -26 -14 -14 -6 -23 -14 -19 -19 3 -5 1 -12 -5 -16 -6 -4 -7 -11 -4 -17
4 -7 2 -8 -4 -4 -7 4 -12 1 -12 -9 0 -12 -7 -14 -31 -10 -26 5 -28 3 -17 -9 7
-8 16 -12 19 -10 3 2 6 -3 6 -11 0 -11 -4 -12 -14 -4 -7 6 -13 8 -13 4 0 -4
-8 -1 -17 6 -9 8 -14 9 -10 2 4 -6 4 -13 0 -16 -5 -2 -2 -2 5 -1 6 2 12 -1 12
-7 0 -6 5 -7 12 -3 6 4 8 3 5 -3 -3 -5 -19 -9 -36 -8 -21 1 -28 -2 -24 -12 4
-10 9 -11 19 -2 9 7 14 8 14 1 0 -5 -7 -13 -16 -16 -8 -3 -12 -10 -9 -16 3 -6
-1 -7 -9 -4 -9 3 -14 9 -11 13 2 4 -3 8 -11 8 -11 0 -9 -6 7 -23 15 -16 17
-24 8 -29 -7 -5 -10 -4 -6 2 7 11 -22 28 -31 18 -3 -3 -1 -5 5 -5 5 0 10 -7
10 -15 0 -12 -3 -12 -15 -2 -13 11 -14 9 -2 -13 12 -22 11 -24 -2 -13 -17 15
-29 7 -21 -13 3 -8 10 -11 17 -8 6 3 3 -1 -8 -10 -10 -8 -15 -20 -11 -26 6 -9
2 -9 -13 -1 -14 7 -23 8 -27 1 -4 -6 -12 -7 -18 -3 -7 4 -6 -1 2 -11 8 -9 20
-15 27 -12 7 3 16 0 20 -7 4 -7 3 -9 -1 -4 -5 4 -20 0 -34 -10 -24 -15 -25
-15 -12 0 7 9 9 17 3 17 -18 0 -21 -29 -4 -40 15 -9 15 -10 -3 -8 -11 2 -24 8
-28 13 -5 6 -6 2 -3 -9 4 -10 1 -25 -5 -32 -6 -7 -8 -18 -4 -25 6 -8 2 -8 -14
0 -12 7 -21 8 -20 4 4 -21 -2 -34 -12 -27 -8 5 -8 1 0 -14 14 -26 14 -43 0
-20 -5 10 -16 15 -25 11 -15 -5 -15 -7 -1 -15 9 -5 14 -15 11 -23 -9 -21 -25
-19 -18 3 4 10 3 13 -3 6 -4 -6 -17 -16 -28 -23 -20 -12 -20 -12 1 -6 13 3 26
-1 34 -10 11 -13 11 -16 -1 -13 -8 2 -13 -2 -12 -8 2 -13 -26 -42 -41 -43 -9
0 -15 -17 -18 -47 -1 -6 -7 -11 -15 -11 -10 0 -10 5 2 24 9 13 11 23 6 23 -5
0 -13 -9 -16 -20 -3 -11 -11 -20 -18 -20 -6 0 -2 -7 9 -16 16 -13 16 -15 2
-10 -10 3 -18 1 -18 -5 0 -6 -5 -7 -12 -3 -7 4 -8 3 -4 -5 4 -6 12 -9 17 -6 5
4 9 1 9 -6 0 -7 -10 -9 -25 -7 -13 3 -22 1 -19 -3 7 -12 14 -49 9 -49 -2 0
-11 8 -21 17 -16 16 -16 16 -9 -6 5 -16 4 -21 -4 -17 -7 5 -8 1 -4 -10 4 -11
8 -13 11 -6 4 14 22 16 22 3 0 -11 -38 -26 -60 -23 -10 1 -11 0 -2 -4 6 -3 9
-11 5 -17 -4 -7 -1 -7 9 1 11 9 18 10 23 2 3 -5 4 -11 1 -11 -3 -1 -10 -3 -16
-4 -5 -1 -17 -3 -26 -4 -8 0 -12 -6 -9 -11 4 -6 11 -7 17 -4 7 5 8 2 4 -5 -5
-7 -14 -10 -22 -7 -8 3 -13 2 -13 -2 4 -24 -2 -42 -13 -36 -7 5 -8 3 -4 -5 5
-7 15 -10 25 -7 13 5 12 3 -3 -8 -10 -9 -15 -20 -10 -27 5 -8 3 -10 -5 -5 -7
5 -10 15 -7 23 4 8 2 11 -5 7 -6 -3 -9 -19 -7 -35 4 -23 2 -26 -9 -17 -10 8
-17 8 -25 0 -7 -7 -8 -12 -2 -12 5 0 2 -5 -6 -10 -13 -8 -12 -10 4 -10 13 0
16 5 11 18 -4 11 -3 14 4 7 15 -16 17 -39 4 -41 -7 -1 -17 -2 -23 -3 -6 -1 -6
-10 0 -26 7 -19 6 -23 -5 -18 -8 3 -12 10 -8 17 3 6 2 7 -2 3 -13 -11 -15 -38
-3 -31 7 4 8 2 4 -4 -4 -7 -1 -12 6 -13 7 0 3 -5 -9 -11 -13 -6 -23 -15 -23
-20 0 -5 4 -7 9 -4 11 7 9 -14 -4 -34 -16 -25 -15 -42 2 -36 13 5 14 4 3 -9
-12 -14 -15 -14 -30 0 -14 13 -17 13 -17 0 0 -8 4 -12 9 -9 4 3 8 0 8 -6 0 -6
6 -10 13 -9 25 3 38 -1 32 -11 -10 -16 6 -12 29 8 l21 17 -20 -24 c-15 -17
-16 -22 -5 -20 8 1 23 -1 33 -6 15 -6 16 -10 5 -17 -10 -6 -8 -13 12 -30 14
-11 24 -24 23 -28 -1 -4 4 -7 12 -7 8 0 12 4 10 8 -3 4 2 6 12 5 9 -2 20 -11
24 -22 5 -11 8 -13 8 -5 1 8 4 11 8 8 3 -4 -2 -17 -13 -28 -19 -22 -19 -22 4
-10 23 13 45 6 27 -7 -13 -9 -18 -32 -7 -32 5 0 13 12 20 28 7 18 10 20 6 5
-4 -18 -2 -22 10 -17 9 3 13 10 10 15 -3 5 2 6 10 3 9 -3 16 -11 16 -18 0 -6
5 -3 11 7 6 9 15 14 21 11 6 -4 8 -3 5 3 -8 12 27 46 36 36 4 -3 7 -2 7 4 0 6
-7 14 -16 17 -10 4 -13 2 -8 -6 5 -7 3 -8 -6 -3 -10 6 -9 11 4 21 18 13 50 8
41 -5 -2 -4 2 -8 10 -8 9 0 11 5 6 11 -4 6 -11 21 -14 34 -5 23 -5 23 19 7 28
-18 33 -9 7 11 -17 13 -17 14 1 7 15 -5 18 -3 13 10 -4 10 -2 16 5 14 7 -1 12
4 13 12 0 8 7 16 15 18 13 4 13 3 0 -6 -13 -9 -13 -11 -1 -11 11 0 9 -4 -5
-16 -18 -15 -18 -15 3 -5 15 8 20 18 18 36 -1 14 2 28 8 32 6 3 7 1 4 -4 -4
-6 0 -14 9 -17 8 -3 12 -2 9 4 -6 9 8 14 28 11 5 -1 6 3 2 9 -3 6 -11 8 -16 5
-5 -4 -9 -1 -9 5 0 8 7 9 18 5 31 -12 37 -10 36 12 -1 14 3 20 12 16 8 -3 14
1 14 11 0 9 5 16 11 16 5 0 7 -5 3 -12 -4 -7 -3 -8 5 -4 9 6 9 11 0 22 -6 8
-9 17 -5 21 3 3 6 1 6 -5 0 -7 10 -12 22 -12 21 0 21 0 2 15 -17 13 -16 14 14
5 28 -8 32 -7 22 5 -8 9 -8 15 0 20 6 3 7 11 4 17 -4 7 -2 8 5 4 9 -6 9 -11 0
-22 -7 -8 -7 -14 -1 -14 12 0 24 28 17 40 -3 4 3 14 13 21 15 13 16 12 4 -3
-8 -10 -9 -18 -3 -22 6 -4 8 -14 5 -24 -5 -14 -4 -14 4 -3 6 8 8 21 4 29 -3
10 -1 13 6 8 8 -4 10 -2 6 7 -5 15 21 31 36 22 4 -3 14 3 21 13 13 15 12 16
-3 3 -11 -8 -18 -9 -18 -3 0 6 9 16 21 23 15 7 19 17 15 32 -5 22 -5 22 11 2
15 -20 15 -20 10 3 -5 20 -3 22 11 10 13 -11 15 -11 9 5 -5 14 -2 16 18 13 14
-3 25 0 25 5 0 5 -7 9 -16 7 -10 -2 -19 2 -21 8 -2 7 6 10 22 9 14 -2 28 2 32
7 3 6 1 8 -4 5 -11 -7 -28 22 -18 31 3 3 5 -1 5 -8 0 -7 3 -10 7 -7 3 4 13 1
22 -5 9 -7 13 -8 9 -4 -4 5 -3 14 2 21 7 8 5 12 -5 12 -8 0 -11 -5 -8 -11 3
-6 2 -7 -2 -3 -20 17 -13 34 12 29 23 -4 24 -3 13 18 -8 15 -8 20 -1 16 6 -4
11 -2 11 4 0 7 7 7 23 -1 l22 -12 -20 22 c-11 12 -15 22 -10 21 24 -5 27 1 9
15 -15 13 -12 13 16 -1 l35 -17 -19 22 c-20 22 -20 22 0 15 16 -7 17 -6 6 8
-11 14 -10 16 9 11 12 -4 20 -2 16 3 -3 5 1 20 10 34 8 14 12 17 9 7 -3 -10
-2 -16 3 -12 5 3 11 -1 14 -7 3 -7 3 4 1 25 -2 34 -1 37 13 25 15 -12 15 -11
3 12 -13 25 -13 25 8 7 15 -14 22 -15 28 -6 4 7 3 10 -3 6 -6 -4 -13 0 -17 8
-4 10 6 20 29 29 32 14 52 35 22 23 -8 -3 -14 1 -14 9 0 8 1 14 1 14 1 0 16
-4 34 -9 41 -12 42 -3 1 11 -31 11 -31 11 -10 22 12 7 18 16 14 20 -4 5 2 4
14 -3 14 -7 24 -8 28 -1 6 9 -1 14 -17 11 -4 0 -5 6 -2 14 4 8 15 15 25 15 10
0 19 5 19 11 0 5 -4 8 -9 4 -5 -3 -13 0 -17 6 -4 8 -3 9 4 5 13 -8 35 28 24
39 -4 3 -2 5 3 3 6 -1 11 2 13 7 2 6 10 17 18 26 8 9 11 19 7 24 -5 4 -2 5 5
1 7 -4 10 -11 7 -16 -3 -5 -1 -11 4 -14 5 -3 8 8 7 25 -1 16 2 33 7 36 6 3 7
1 3 -5 -5 -8 1 -11 18 -10 15 1 26 6 26 11 0 5 -7 6 -16 3 -11 -4 -15 -2 -11
8 3 7 0 19 -6 26 -7 7 1 5 16 -5 15 -10 30 -15 34 -11 3 3 1 6 -6 6 -7 0 -9 5
-5 12 4 6 3 8 -3 5 -5 -3 -10 0 -10 7 0 8 10 12 23 10 14 -1 22 3 21 9 -1 7 3
11 10 10 8 -2 10 4 6 14 -4 11 -3 14 5 9 8 -5 10 -2 6 8 -3 9 -11 13 -18 9 -6
-4 -5 1 3 10 14 18 26 23 16 8 -3 -5 -1 -12 4 -15 5 -3 8 7 7 23 -1 20 2 27
11 24 7 -3 13 0 13 6 0 6 -4 11 -10 11 -5 0 -10 5 -10 10 0 6 11 3 25 -6 24
-16 25 -16 18 1 -5 14 -3 16 7 10 8 -5 11 -4 6 3 -4 6 -12 10 -19 8 -7 -1 -9
-1 -4 1 4 3 4 9 1 15 -4 5 4 5 16 -2 15 -8 20 -8 16 -1 -4 6 -2 11 3 11 6 0
11 5 11 11 0 8 -4 8 -14 0 -10 -8 -16 -9 -21 -1 -6 10 -5 12 18 14 6 0 12 7
12 15 0 8 7 16 15 18 9 3 11 1 5 -4 -5 -4 -11 -15 -13 -23 -3 -13 -2 -13 10 0
7 8 20 21 28 29 13 12 13 13 -3 7 -13 -4 -17 -2 -14 6 2 7 11 12 20 12 10 -1
14 6 12 23 -2 19 1 24 15 20 18 -5 22 15 5 30 -4 4 -5 2 -1 -4 5 -9 2 -11 -9
-7 -19 8 -15 13 14 19 11 2 21 -1 21 -7 0 -6 3 -9 6 -6 3 4 1 15 -5 27 -9 17
-8 22 10 32 17 9 20 8 14 -3 -7 -11 -5 -11 6 0 12 11 12 14 0 22 -12 7 -12 11
-2 24 7 8 21 18 32 21 10 4 19 11 19 17 0 5 -7 7 -16 4 -9 -3 -12 -2 -8 5 3 6
15 8 26 6 14 -4 18 -1 13 12 -3 11 3 28 16 42 11 13 18 18 14 12 -3 -7 -1 -13
4 -13 6 0 11 11 11 24 0 14 5 28 10 31 6 4 8 10 5 15 -3 5 0 12 6 16 7 4 9 3
6 -2 -3 -6 3 -15 13 -22 13 -7 21 -8 25 -2 4 6 3 9 -2 8 -4 -2 -8 -1 -9 2 0 3
-7 16 -14 30 -13 25 -13 25 7 7 18 -16 21 -16 27 -2 3 9 2 14 -3 11 -5 -3 -11
0 -14 8 -4 11 1 13 18 10 26 -5 44 23 20 32 -12 5 -12 8 0 20 17 18 31 18 16
1 -8 -10 -7 -14 3 -14 14 0 16 14 3 33 -9 15 2 24 21 17 14 -5 13 -2 -3 17
-11 13 -15 20 -8 17 6 -4 18 2 26 14 8 11 18 16 21 11 3 -6 2 -12 -3 -14 -5
-1 -2 -10 7 -18 14 -13 15 -12 9 3 -4 10 -2 17 6 17 9 0 9 2 -1 8 -14 9 -6 42
10 42 6 0 6 -6 -1 -14 -10 -12 -9 -14 6 -12 12 2 17 10 15 25 -2 16 1 21 12
19 8 -2 15 2 15 7 0 6 -8 9 -17 8 -9 -1 -12 0 -5 3 7 3 9 13 5 22 -5 15 -4 15
12 0 23 -23 29 -23 17 1 -9 15 -7 18 11 17 13 -1 22 6 24 17 1 9 -2 15 -7 11
-5 -3 -7 -10 -4 -15 3 -5 -1 -6 -10 -3 -14 6 -13 8 5 21 11 8 17 19 14 25 -4
7 -2 8 5 4 6 -4 9 -12 6 -17 -4 -5 -2 -9 4 -9 6 0 9 15 7 34 -1 19 4 42 11 52
13 18 14 17 10 -7 -3 -14 -1 -32 4 -40 8 -12 10 -12 8 1 -3 28 1 41 10 35 5
-3 12 -1 15 4 4 5 1 13 -5 17 -8 5 -9 3 -4 -6 5 -9 4 -11 -4 -6 -8 6 -9 12 -2
20 6 7 8 15 5 18 -3 3 2 5 12 5 9 -1 19 4 21 11 3 8 -1 10 -14 5 -12 -4 -8 2
10 19 16 15 35 24 42 22 18 -7 38 29 24 43 -6 6 -4 15 7 24 12 9 15 10 10 2
-4 -8 -1 -13 8 -13 19 0 21 11 5 27 -8 8 -7 13 2 18 8 6 10 4 4 -5 -5 -8 -3
-11 6 -8 8 3 13 14 13 26 -1 12 4 20 10 19 6 -1 10 6 10 15 -1 10 2 16 6 13 5
-3 11 -1 15 5 4 6 11 7 17 4 8 -5 9 -1 4 11 -5 13 -3 15 6 8 14 -11 46 -9 56
3 4 4 0 5 -8 2 -9 -3 -24 0 -35 8 -17 13 -16 14 13 10 18 -2 31 -1 28 2 -3 2
1 14 9 25 11 15 12 24 3 34 -8 11 -7 12 6 7 11 -4 14 -14 11 -33 l-5 -26 10
25 c6 14 18 31 28 38 15 12 14 13 -10 8 -20 -3 -25 -1 -21 10 3 8 8 12 12 9 4
-2 8 2 8 9 0 8 -7 12 -15 8 -9 -3 -13 -1 -9 5 5 7 0 9 -13 6 -11 -3 -20 -10
-20 -16 0 -6 -3 -7 -6 -4 -4 4 -1 14 7 23 12 15 12 17 -1 12 -8 -3 -21 2 -28
11 -11 14 -11 13 -2 -6 8 -17 8 -23 0 -23 -6 0 -8 -5 -4 -12 4 -7 3 -8 -4 -4
-6 4 -9 13 -6 21 3 8 -4 18 -18 25 -22 11 -22 10 -4 -4z m96 -46 c0 -5 -5 -10
-11 -10 -5 0 -7 5 -4 10 3 6 8 10 11 10 2 0 4 -4 4 -10z m-273 -34 c-3 -7 0
-20 6 -27 10 -11 9 -11 -5 0 -15 11 -15 41 -1 41 3 0 3 -6 0 -14z m-147 -83
c0 -5 -10 -19 -21 -33 l-20 -25 16 33 c15 30 25 41 25 25z m212 -171 c-7 -2
-9 -9 -5 -15 3 -7 2 -8 -2 -4 -16 14 -14 36 3 29 10 -4 12 -7 4 -10z m-177
-191 c3 -5 2 -12 -3 -15 -5 -3 -9 1 -9 9 0 17 3 19 12 6z m-668 -133 c2 -17 0
-19 -7 -8 -5 8 -6 18 -4 22 8 12 10 10 11 -14z m-167 -158 c0 -5 -3 -9 -7 -9
-21 3 -33 -2 -27 -13 5 -7 3 -8 -6 -3 -10 6 -9 11 5 22 22 16 35 17 35 3z
m654 -12 c-3 -4 -11 -5 -19 -1 -21 7 -19 12 4 10 11 0 18 -5 15 -9z m-914
-248 c0 -5 -4 -10 -10 -10 -5 0 -10 5 -10 10 0 6 5 10 10 10 6 0 10 -4 10 -10z
m449 -416 c-14 -13 -16 -13 -16 0 0 8 4 13 9 10 4 -3 8 0 8 7 0 7 3 9 7 5 4
-3 0 -13 -8 -22z m-269 -344 c0 -5 -5 -10 -11 -10 -5 0 -7 5 -4 10 3 6 8 10
11 10 2 0 4 -4 4 -10z m-373 -446 c-3 -3 -12 -4 -19 -1 -8 3 -5 6 6 6 11 1 17
-2 13 -5z m-203 -180 c3 -8 2 -12 -4 -9 -6 3 -10 10 -10 16 0 14 7 11 14 -7z
m-404 -149 c6 3 10 1 10 -4 0 -16 -23 -13 -46 5 -18 14 -18 15 4 4 12 -6 27
-8 32 -5z m175 -65 c-10 -11 -25 -19 -34 -19 -13 1 -13 2 2 6 9 2 14 9 11 15
-4 7 -2 8 4 4 7 -4 12 -2 12 3 0 6 5 11 12 11 6 0 3 -9 -7 -20z"/>
<path d="M6365 6940 c3 -5 8 -10 11 -10 2 0 4 5 4 10 0 6 -5 10 -11 10 -5 0
-7 -4 -4 -10z"/>
<path d="M6096 6814 c-5 -14 -4 -15 9 -4 17 14 19 20 6 20 -5 0 -12 -7 -15
-16z"/>
<path d="M6373 6731 c-15 -20 -17 -28 -8 -28 8 0 12 4 9 9 -4 5 3 12 15 15 22
5 27 18 13 27 -5 3 -18 -7 -29 -23z"/>
<path d="M6355 6680 c-3 -5 -1 -10 4 -10 6 0 11 5 11 10 0 6 -2 10 -4 10 -3 0
-8 -4 -11 -10z"/>
<path d="M6241 6576 c-8 -10 -9 -16 -1 -21 5 -3 10 -5 11 -3 4 18 7 38 4 38
-1 0 -8 -6 -14 -14z"/>
<path d="M5643 6515 c-17 -19 -16 -30 0 -16 8 6 17 8 21 4 4 -4 4 0 0 10 -7
20 -6 20 -21 2z"/>
<path d="M5974 6229 c-4 -7 -3 -9 4 -5 5 3 13 0 15 -6 4 -9 6 -10 6 -1 1 17
-16 25 -25 12z"/>
<path d="M5846 6032 c-2 -4 -1 -14 4 -22 7 -11 9 -9 7 8 -1 24 -3 26 -11 14z"/>
<path d="M5797 5965 c-4 -8 -3 -16 1 -19 4 -3 9 4 9 15 2 23 -3 25 -10 4z"/>
<path d="M5753 5873 c0 -9 4 -10 14 -2 7 6 13 12 13 14 0 1 -6 2 -13 2 -8 0
-14 -6 -14 -14z"/>
<path d="M5725 5870 c-3 -5 -1 -10 4 -10 6 0 11 5 11 10 0 6 -2 10 -4 10 -3 0
-8 -4 -11 -10z"/>
<path d="M5690 5817 c0 -2 6 -10 14 -16 11 -9 16 -9 22 1 4 7 4 10 -1 6 -4 -4
-14 -3 -22 3 -7 6 -13 9 -13 6z"/>
<path d="M4768 5653 c10 -4 10 -8 1 -19 -6 -8 -15 -12 -19 -9 -5 3 -12 0 -16
-6 -4 -8 -3 -9 4 -5 7 4 12 2 12 -5 0 -6 9 -1 19 12 20 25 19 40 -2 38 -8 0
-8 -2 1 -6z"/>
<path d="M5530 5530 c-6 -11 -8 -20 -6 -20 3 0 10 9 16 20 6 11 8 20 6 20 -3
0 -10 -9 -16 -20z"/>
<path d="M4570 5400 c0 -5 5 -10 10 -10 6 0 10 5 10 10 0 6 -4 10 -10 10 -5 0
-10 -4 -10 -10z"/>
<path d="M5349 5325 c-1 -3 -2 -8 -3 -12 -1 -5 -5 -14 -10 -21 -13 -21 -3 -21
17 0 9 10 12 18 6 18 -5 0 -7 5 -4 10 3 6 4 10 1 10 -3 0 -7 -2 -7 -5z"/>
<path d="M4475 5280 c-3 -5 -1 -10 4 -10 6 0 11 5 11 10 0 6 -2 10 -4 10 -3 0
-8 -4 -11 -10z"/>
<path d="M5240 5170 c-9 -6 -10 -10 -3 -10 6 0 15 5 18 10 8 12 4 12 -15 0z"/>
<path d="M4395 5120 c-4 -6 -11 -8 -16 -5 -5 3 -6 -2 -2 -11 4 -11 3 -15 -5
-10 -6 3 -13 2 -17 -4 -4 -6 -11 -7 -17 -4 -7 4 -8 2 -4 -5 6 -9 11 -9 22 0
11 9 14 9 14 -1 0 -10 3 -10 15 0 9 7 13 15 10 18 -3 3 0 11 6 19 6 7 9 13 6
13 -3 0 -9 -5 -12 -10z"/>
<path d="M5113 4975 c0 -8 4 -12 9 -9 5 3 6 10 3 15 -9 13 -12 11 -12 -6z"/>
<path d="M4915 4721 c-3 -5 -2 -12 3 -15 5 -3 9 1 9 9 0 17 -3 19 -12 6z"/>
<path d="M4810 4640 c0 -5 5 -10 11 -10 5 0 7 5 4 10 -3 6 -8 10 -11 10 -2 0
-4 -4 -4 -10z"/>
<path d="M4053 4508 c-12 -20 -12 -37 0 -45 7 -3 9 -2 4 2 -4 5 0 16 9 26 9
10 11 19 5 23 -5 4 -13 1 -18 -6z"/>
<path d="M4655 4500 c-3 -5 -1 -10 4 -10 6 0 11 5 11 10 0 6 -2 10 -4 10 -3 0
-8 -4 -11 -10z"/>
<path d="M3429 4419 c-9 -17 -8 -20 3 -13 10 6 11 5 1 -8 -7 -8 -9 -19 -5 -23
4 -5 1 -5 -6 -1 -7 4 -10 12 -7 17 4 5 2 9 -4 9 -6 0 -8 8 -5 18 5 16 5 16 -6
-1 -6 -9 -9 -21 -6 -25 2 -4 -3 -8 -12 -9 -9 -1 -26 -4 -37 -6 -11 -3 -26 -6
-33 -6 -7 -1 -10 -6 -6 -13 4 -7 3 -8 -5 -4 -6 4 -9 11 -6 16 3 4 -4 10 -16
13 -16 4 -18 3 -8 -9 13 -16 13 -16 -21 -19 -14 -1 -28 2 -32 9 -6 8 -8 7 -8
-1 0 -7 -5 -13 -11 -13 -5 0 -7 5 -3 12 4 7 3 8 -5 4 -15 -10 -3 -29 15 -22 7
3 16 1 19 -4 5 -8 -24 -7 -55 2 -8 3 -12 3 -7 1 4 -3 4 -10 1 -15 -4 -6 -2 -8
4 -4 6 3 13 3 16 -2 2 -4 -4 -8 -14 -9 -10 -1 -21 5 -24 13 -3 8 -11 14 -18
14 -9 0 -9 -3 -2 -8 6 -4 14 -16 18 -27 4 -11 4 -16 0 -12 -4 4 -15 0 -25 -9
-16 -14 -17 -14 -14 3 1 10 8 17 14 16 6 -2 11 2 11 7 0 17 -18 11 -34 -12 -8
-12 -12 -26 -9 -32 4 -6 -1 -4 -11 4 -23 18 -44 21 -53 8 -3 -6 -2 -9 3 -5 5
3 18 -2 29 -10 20 -15 20 -15 -2 -8 -14 4 -23 2 -23 -5 0 -6 -4 -8 -10 -5 -5
3 -10 -3 -10 -14 0 -12 -4 -21 -9 -21 -6 0 -8 9 -6 20 2 12 0 18 -6 15 -5 -4
-6 -11 -3 -17 4 -6 -2 -8 -17 -3 -17 4 -20 4 -10 -4 21 -14 22 -39 2 -37 -9 0
-15 -4 -14 -10 1 -6 -5 -11 -13 -11 -11 0 -9 6 6 22 16 17 17 22 6 22 -8 0
-13 -4 -11 -8 3 -3 -2 -12 -11 -19 -8 -7 -12 -20 -10 -27 4 -10 1 -13 -12 -9
-9 3 -24 1 -32 -4 -10 -6 -11 -10 -2 -10 6 0 12 -7 12 -15 0 -8 -5 -15 -11
-15 -5 0 -7 5 -4 11 4 6 -2 5 -13 -2 -12 -7 -18 -19 -14 -28 4 -10 7 -11 10
-3 2 7 8 12 14 12 6 0 4 -8 -5 -18 -10 -10 -14 -22 -10 -25 3 -4 4 -7 1 -7 -3
0 -12 8 -19 17 -12 14 -12 16 0 8 10 -5 12 -4 7 4 -4 6 -13 8 -19 4 -7 -4 -15
-8 -19 -8 -3 0 -10 -3 -14 -7 -3 -4 3 -5 16 -3 16 3 20 0 16 -10 -3 -8 0 -15
6 -15 6 0 8 -3 5 -6 -4 -4 -14 -1 -24 7 -11 9 -14 10 -9 2 4 -8 2 -13 -5 -13
-6 0 -9 -8 -6 -20 3 -13 1 -18 -6 -13 -6 4 -8 0 -4 -9 8 -22 -2 -29 -23 -18
-12 6 -17 5 -17 -5 0 -8 4 -12 9 -9 4 3 8 0 8 -6 0 -6 6 -8 13 -4 6 4 4 -2 -6
-13 -9 -11 -14 -23 -10 -28 5 -4 2 -5 -5 -1 -7 4 -10 11 -7 16 3 4 -2 13 -10
20 -12 10 -13 7 -9 -15 3 -15 1 -24 -5 -21 -5 3 -7 -3 -4 -14 3 -11 10 -20 16
-20 6 0 7 -3 4 -6 -4 -4 -13 -1 -21 5 -11 9 -16 9 -22 0 -4 -8 -3 -9 4 -5 7 4
12 1 12 -8 0 -14 -11 -20 -31 -18 -3 1 -4 -11 -1 -25 5 -27 5 -27 13 -4 7 18
29 22 29 5 0 -3 -4 -3 -9 0 -5 3 -11 -4 -14 -15 -4 -14 -11 -20 -20 -16 -11 4
-13 0 -9 -15 3 -13 1 -19 -5 -15 -6 4 -9 -5 -7 -24 3 -26 1 -29 -10 -20 -10 8
-16 9 -21 1 -4 -6 -1 -9 5 -8 6 2 19 -8 28 -22 9 -13 11 -21 5 -17 -7 5 -21 3
-30 -3 -16 -10 -16 -11 2 -5 15 5 17 3 9 -5 -13 -13 -7 -50 7 -50 5 0 9 -4 9
-10 0 -18 -15 -10 -32 18 -10 15 -18 22 -18 15 0 -6 12 -26 27 -45 15 -18 21
-27 12 -21 -9 7 -19 10 -22 6 -4 -3 -7 0 -7 7 0 7 -2 11 -5 8 -7 -7 5 -39 14
-34 3 2 12 -2 19 -10 11 -12 10 -14 -5 -11 -10 1 -24 6 -30 10 -7 5 -13 4 -13
-2 0 -5 9 -13 20 -16 11 -3 20 -10 20 -15 0 -5 -7 -7 -15 -4 -11 5 -13 2 -9
-10 3 -9 10 -13 15 -10 5 3 9 0 9 -6 0 -6 5 -8 12 -4 6 4 8 3 5 -4 -8 -12 -25
-11 -47 3 -12 7 -13 6 -3 -7 7 -8 10 -18 6 -22 -4 -4 1 -4 12 0 18 7 18 6 6
-9 -7 -9 -10 -17 -5 -18 5 0 0 -5 -11 -10 l-20 -9 20 3 c11 2 19 8 18 13 -1 6
5 11 13 11 10 0 11 -4 4 -11 -12 -12 -14 -29 -2 -22 5 3 9 -2 9 -10 0 -10 -4
-11 -11 -4 -14 14 -29 13 -19 -2 4 -7 9 -33 10 -58 5 -79 7 -89 14 -84 8 5 5
35 -6 57 -4 6 1 3 9 -7 11 -13 16 -15 16 -6 0 7 3 10 6 7 4 -4 2 -12 -3 -19
-5 -7 -9 -25 -8 -40 1 -20 -3 -28 -14 -28 -10 0 -7 -5 9 -13 16 -8 25 -21 24
-35 -1 -12 3 -22 8 -22 6 0 7 7 4 16 -3 9 -2 12 5 8 6 -3 8 -17 4 -32 -5 -22
-4 -24 9 -13 12 10 14 9 9 -8 -3 -12 -10 -18 -17 -14 -6 4 -5 -1 3 -10 7 -9
17 -14 22 -11 5 3 9 -1 9 -8 0 -10 3 -9 11 2 9 13 10 13 6 -2 -8 -23 3 -30 22
-15 14 10 14 10 3 -4 -13 -17 -7 -49 10 -49 5 0 6 -10 3 -21 -5 -15 -4 -19 4
-14 20 12 39 -13 35 -48 -3 -23 -1 -28 6 -17 9 14 14 7 11 -13 -1 -4 8 -3 18
3 13 7 22 7 26 0 6 -10 -1 -14 -18 -11 -5 1 -5 -3 -2 -9 4 -6 13 -9 21 -6 8 3
11 0 8 -8 -6 -16 6 -26 43 -32 15 -3 30 -8 33 -11 3 -3 -5 -3 -17 0 -13 3 -23
1 -23 -4 0 -8 15 -13 33 -10 4 0 7 -5 7 -11 0 -9 4 -8 11 2 8 12 9 10 4 -7 -5
-18 -3 -22 8 -17 8 3 18 0 22 -6 5 -8 11 -7 23 2 15 12 16 11 3 -5 -13 -17
-13 -18 4 -15 10 1 20 -4 22 -12 4 -12 3 -12 -5 -1 -7 9 -12 10 -16 2 -7 -11
0 -13 42 -14 13 0 22 -6 22 -15 0 -11 -3 -12 -13 -4 -8 7 -18 8 -27 1 -12 -8
-11 -9 5 -7 13 2 19 -2 17 -11 -3 -12 0 -12 12 -2 12 10 16 9 25 -6 6 -10 11
-13 11 -6 0 6 -5 15 -10 18 -13 8 -3 25 13 25 7 0 6 -4 -3 -10 -12 -8 -12 -10
3 -16 9 -3 14 -11 10 -18 -3 -6 4 -2 18 9 13 11 18 13 12 5 -19 -21 -16 -32 6
-20 14 7 22 7 26 0 4 -6 11 -7 17 -4 7 4 8 2 4 -4 -9 -15 6 -16 20 -2 8 8 15
6 25 -6 9 -12 10 -15 2 -10 -7 4 -13 2 -13 -3 0 -6 5 -11 10 -11 20 0 25 -2
39 -13 12 -9 13 -9 7 1 -4 7 -2 12 6 13 7 0 23 2 35 3 12 1 21 0 19 -3 -2 -3
0 -15 5 -26 6 -16 8 -17 8 -3 1 9 6 20 13 24 7 4 8 3 4 -4 -4 -7 -2 -12 5 -12
8 0 7 -5 -2 -17 -13 -15 -12 -15 11 0 32 20 73 28 91 16 10 -7 6 -8 -13 -5
-15 3 -30 1 -32 -3 -3 -4 9 -6 27 -5 18 1 32 2 32 3 0 2 13 5 30 7 16 3 36 11
44 17 12 9 13 9 7 0 -4 -8 -1 -13 9 -13 10 0 14 -5 9 -12 -5 -10 -3 -10 7 0
12 11 12 14 -1 23 -12 8 -11 9 5 7 13 -3 19 -11 18 -23 -1 -19 -1 -19 11 -3 7
10 16 15 20 11 4 -4 9 3 12 14 5 17 9 19 19 10 7 -7 10 -16 7 -22 -2 -5 1 -5
8 2 10 9 10 16 2 25 -8 11 -7 14 8 14 13 0 17 -6 14 -21 -3 -19 -3 -19 11 -2
7 11 11 25 9 32 -3 7 -1 16 5 20 7 3 8 0 5 -9 -8 -20 12 -21 23 -2 7 12 10 12
20 0 8 -8 9 -15 3 -19 -6 -3 -10 -1 -10 4 0 7 -7 7 -20 -1 -11 -7 -20 -17 -20
-22 0 -4 7 -3 15 4 8 6 19 9 24 6 5 -4 12 -2 16 4 4 6 12 7 18 3 7 -3 3 4 -8
17 -11 13 -15 20 -8 17 6 -4 19 0 27 9 9 8 16 12 16 7 0 -5 -5 -14 -10 -19 -7
-7 -6 -11 5 -11 8 0 16 6 16 14 3 27 4 31 11 39 4 3 6 -3 3 -15 -2 -11 0 -21
6 -21 8 0 14 23 10 43 -1 5 3 6 9 2 6 -3 8 -10 5 -15 -3 -4 2 -11 11 -14 9 -4
13 -2 8 5 -4 6 0 15 7 20 8 4 14 14 14 21 0 7 7 13 15 13 8 1 14 6 12 13 -1 7
2 12 8 12 5 0 10 -5 10 -11 0 -5 4 -8 10 -4 5 3 7 13 4 23 -5 16 -5 16 6 0 11
-17 40 -14 40 4 0 6 -6 5 -15 -2 -20 -16 -19 -6 1 14 17 18 39 22 29 6 -9 -15
2 -12 20 6 10 10 13 24 9 36 -4 15 -3 18 7 13 9 -6 11 -3 6 9 -4 10 -3 15 3
11 6 -3 12 0 15 7 3 8 16 14 28 15 12 0 16 -1 10 -4 -7 -3 -13 -10 -13 -16 0
-8 4 -7 12 1 13 13 21 45 9 37 -4 -2 -8 2 -8 10 0 8 4 12 8 10 12 -8 39 6 33
16 -3 5 -11 6 -17 2 -7 -4 -6 1 2 10 11 14 17 15 28 5 8 -6 13 -7 12 -2 -4 23
2 54 11 54 5 0 7 -8 4 -17 -5 -14 -4 -15 4 -4 5 7 16 18 23 23 11 8 10 9 -3 4
-10 -3 -18 -1 -18 5 0 6 -5 7 -12 3 -7 -4 -8 -3 -4 4 4 6 14 8 23 5 11 -4 14
-3 9 5 -7 11 6 17 27 13 5 -1 5 3 2 9 -4 6 -14 9 -22 6 -8 -4 -11 -1 -7 5 3 6
15 9 25 6 11 -3 16 -1 13 4 -3 6 -1 15 5 22 6 7 6 18 1 26 -10 17 -2 43 11 35
5 -3 9 -10 9 -15 0 -6 -5 -7 -12 -3 -7 4 -8 3 -4 -5 6 -9 11 -9 22 0 12 10 11
14 -5 28 -20 17 -20 18 4 43 17 18 21 28 12 31 -9 4 -9 6 1 6 6 1 12 9 11 19
0 10 -3 12 -6 5 -2 -7 -9 -13 -15 -13 -6 0 -4 8 5 18 13 14 14 21 5 30 -8 8
-5 9 13 5 l24 -6 -20 23 c-11 13 -14 20 -7 16 11 -6 17 11 13 37 0 4 3 7 8 7
13 0 21 39 9 47 -6 3 -8 2 -5 -3 3 -6 -4 -11 -15 -11 -19 -2 -19 -1 -3 11 12
9 15 18 10 27 -7 12 -6 12 7 1 13 -10 18 -10 24 -1 4 7 3 9 -3 6 -11 -7 -31
37 -27 61 1 6 2 16 3 22 0 5 9 7 19 4 9 -4 4 3 -13 15 -16 11 -24 21 -18 21 7
0 12 3 12 8 -4 22 3 31 19 26 16 -5 16 -5 0 6 -10 6 -18 18 -18 26 0 8 -4 13
-9 10 -5 -4 -8 1 -7 10 1 8 9 19 16 24 10 6 7 10 -13 15 -15 4 -24 11 -22 16
3 4 13 6 23 2 9 -3 6 3 -8 13 -14 10 -29 17 -35 16 -5 -2 -5 2 1 8 9 9 18 9
35 0 23 -11 23 -11 4 5 -11 9 -19 22 -17 30 1 7 -6 16 -17 20 -10 3 -22 12
-25 21 -5 12 -2 13 17 4 19 -10 19 -9 -3 9 -14 11 -31 19 -38 16 -7 -3 -10 0
-6 6 3 6 15 8 27 5 14 -3 17 -2 9 6 -6 6 -22 11 -36 11 -14 0 -23 4 -20 9 3 4
11 8 17 7 24 -3 37 1 37 12 0 8 -4 8 -13 0 -11 -8 -19 -5 -35 14 -23 26 -27
37 -14 32 7 -2 12 6 12 18 0 3 -9 1 -20 -5 -11 -6 -17 -16 -14 -22 4 -7 2 -8
-5 -4 -9 6 -9 11 0 22 7 8 7 14 1 14 -5 0 -13 8 -16 17 -6 15 -5 15 13 -1 13
-11 21 -14 26 -6 4 6 1 9 -7 8 -7 -2 -12 3 -11 10 2 6 -5 12 -15 12 -9 0 -26
7 -36 15 -10 8 -24 11 -30 8 -6 -4 -5 0 2 9 10 13 8 18 -13 32 -14 9 -25 22
-25 29 0 8 4 7 11 -3 9 -12 10 -12 5 3 -3 10 -6 21 -6 24 0 3 -8 -1 -17 -8
-14 -12 -15 -12 -9 0 7 10 3 12 -15 6 -19 -5 -21 -4 -9 4 13 9 8 15 -11 13 -3
-1 -6 6 -6 14 0 11 4 11 19 -3 10 -9 21 -13 25 -10 3 4 1 7 -6 7 -7 0 -9 5 -5
12 4 6 3 8 -4 4 -5 -3 -20 6 -31 21 -12 16 -19 21 -16 12 4 -10 0 -16 -9 -16
-8 0 -13 4 -11 8 7 11 -6 39 -17 39 -6 0 -6 -6 1 -14 8 -10 9 -16 1 -21 -5 -3
-11 -4 -11 -1 -1 3 -2 9 -3 14 -1 4 -7 17 -14 28 -6 12 -8 24 -5 28 3 3 1 6
-5 6 -15 0 -15 -2 -2 -35 7 -17 7 -24 0 -20 -6 3 -10 13 -10 21 0 8 -4 13 -8
10 -12 -7 -38 12 -29 21 5 4 12 1 17 -7 6 -9 10 -10 10 -3 0 22 -23 26 -38 7
-14 -18 -14 -18 -8 2 6 18 2 21 -24 19 -22 -1 -27 1 -20 10 17 21 -33 47 -66
35 -21 -9 -31 -7 -47 7 -11 10 -17 13 -14 6 4 -6 2 -15 -4 -19 -7 -4 -9 -3 -6
3 7 11 -28 45 -37 36 -3 -4 0 -13 7 -22 11 -14 10 -14 -5 -2 -10 7 -16 17 -13
21 3 4 -2 13 -9 19 -12 10 -14 8 -10 -11 3 -19 1 -17 -11 7 -12 23 -15 25 -11
8 5 -25 -9 -40 -20 -22 -4 8 -9 7 -16 -2 -8 -11 -9 -11 -5 1 2 8 10 14 16 13
6 -2 11 2 11 8 0 6 -9 8 -21 4 -16 -5 -19 -4 -14 5 5 9 4 11 -4 6 -6 -4 -9
-11 -7 -15 3 -4 -2 -8 -10 -8 -9 0 -13 6 -9 16 3 8 3 12 -1 9 -4 -4 -15 -3
-26 3 -14 7 -23 7 -33 -1 -10 -8 -14 -8 -18 2 -4 9 -6 9 -6 1 -1 -16 16 -26
24 -13 3 5 11 10 18 10 18 0 -7 -20 -31 -25 -12 -2 -23 0 -23 6 -1 5 -2 13 -3
18 0 5 -5 13 -9 18 -5 4 -8 4 -6 -2 1 -5 -3 -21 -9 -35 -10 -22 -11 -23 -13
-5 -1 11 -2 26 -2 33 1 18 -5 15 -18 -9z m138 -22 c0 -8 -6 -14 -13 -14 -7 0
-10 6 -7 14 3 7 8 13 12 13 4 0 8 -6 8 -13z m306 -61 c16 -12 16 -14 2 -20
-10 -4 -14 -2 -9 5 4 8 -1 9 -15 4 -20 -6 -28 4 -14 18 9 10 15 8 36 -7z
m-338 -145 c5 -27 -11 -27 -26 0 -8 15 -8 19 0 15 6 -4 11 -2 11 5 0 18 10 5
15 -20z m-100 -1 c-2 -11 0 -18 5 -15 5 3 10 0 13 -7 2 -7 2 -3 1 9 -2 12 1
25 6 28 6 4 10 3 9 -2 -3 -20 2 -34 11 -28 6 4 7 12 4 18 -4 7 4 1 19 -12 23
-21 55 -22 42 0 -8 12 12 11 38 -2 18 -9 20 -9 10 2 -7 7 -13 18 -13 24 0 5 4
4 9 -4 8 -13 12 -13 28 -1 15 12 16 12 6 0 -17 -18 -17 -38 -1 -22 15 15 28
15 28 1 0 -5 -6 -7 -12 -3 -7 4 -9 3 -5 -2 4 -4 21 -9 37 -9 17 0 36 -9 45
-20 16 -19 16 -19 5 3 -7 15 -7 22 0 22 5 0 10 -3 10 -7 0 -5 13 -15 29 -24
21 -12 32 -14 40 -6 8 8 11 6 11 -6 0 -17 11 -21 39 -18 8 2 10 -3 6 -11 -6
-10 -5 -11 6 0 16 15 29 16 29 1 0 -5 -4 -8 -8 -5 -4 2 -8 -4 -8 -14 0 -11 2
-17 5 -15 2 3 9 1 15 -4 6 -4 20 -11 31 -14 19 -7 19 -7 1 8 -10 8 -24 16 -30
18 -8 3 -7 9 2 18 11 12 13 12 10 -1 -2 -10 4 -15 17 -14 23 0 30 -34 11 -49
-7 -6 -5 -7 5 -4 9 3 22 1 28 -4 8 -6 8 -5 1 3 -5 7 -10 16 -10 20 0 4 5 8 10
8 6 0 9 -6 8 -12 -2 -7 2 -12 8 -11 7 1 10 -6 7 -16 -3 -10 0 -22 6 -25 5 -4
9 -12 7 -19 -1 -7 -1 -9 1 -4 3 4 9 7 14 7 6 0 7 -5 3 -12 -5 -7 -3 -8 6 -3
11 7 9 12 -8 23 -12 8 -22 19 -22 24 0 5 7 2 16 -6 8 -9 19 -14 23 -11 5 2 8
-3 8 -13 0 -34 3 -43 13 -37 6 3 10 -1 10 -9 0 -8 9 -24 20 -34 12 -11 18 -27
15 -40 -2 -13 0 -20 6 -17 5 4 7 10 4 15 -3 5 -1 11 4 15 6 3 8 -6 5 -21 -3
-14 -1 -23 4 -20 4 2 14 0 22 -6 12 -8 12 -9 -2 -4 -10 3 -18 1 -18 -4 0 -6 5
-10 11 -10 7 0 9 -11 6 -27 -3 -19 2 -33 19 -50 21 -21 22 -28 1 -24 -5 1 -6
-3 -2 -9 3 -6 11 -7 17 -4 6 4 8 -1 3 -16 -4 -13 -3 -20 2 -17 5 3 15 1 23 -5
12 -8 12 -9 -2 -4 -10 3 -18 1 -18 -4 0 -6 4 -10 8 -10 12 0 12 -43 0 -57 -8
-10 -8 -17 1 -26 10 -9 11 -8 6 8 -5 14 -4 16 2 7 5 -7 8 -23 7 -35 -1 -12 -3
-28 -3 -35 -1 -7 -5 -10 -11 -7 -6 3 -7 -1 -4 -10 5 -13 9 -13 23 -3 14 12 14
11 2 -4 -7 -10 -11 -24 -8 -32 3 -7 -1 -23 -9 -35 -16 -23 -6 -29 15 -8 10 10
11 9 6 -5 -4 -10 -16 -18 -26 -18 -21 0 -25 -15 -7 -26 7 -4 8 -3 4 4 -5 8 -1
10 9 5 13 -5 14 -7 3 -14 -7 -5 -9 -9 -4 -9 6 0 5 -5 -2 -12 -16 -16 -15 -31
1 -22 8 5 8 3 -2 -9 -7 -9 -16 -15 -20 -13 -3 2 -13 -3 -21 -12 -13 -14 -13
-15 1 -10 20 8 46 -7 30 -16 -6 -4 -11 -2 -11 5 0 8 -6 6 -18 -4 -10 -10 -22
-14 -25 -11 -4 4 -1 -5 6 -19 6 -14 16 -23 21 -20 5 4 6 1 2 -6 -5 -8 -12 -9
-20 -2 -8 7 -17 6 -26 -1 -12 -8 -12 -9 2 -4 14 4 17 1 14 -17 -3 -12 -5 -24
-6 -27 -2 -3 -2 -8 -1 -12 0 -5 -4 -8 -11 -8 -6 0 -8 -3 -5 -7 12 -11 -14 -32
-31 -26 -14 6 -15 4 -5 -9 15 -17 7 -29 -13 -21 -9 3 -14 -1 -14 -12 0 -9 4
-14 9 -10 5 3 13 0 17 -6 4 -7 3 -9 -4 -5 -6 3 -16 -2 -22 -11 -10 -16 -11
-16 -6 -1 3 10 1 20 -4 23 -6 4 -10 -5 -10 -19 0 -14 -5 -26 -11 -26 -5 0 -7
4 -4 10 4 6 -1 7 -11 3 -15 -5 -15 -7 0 -15 9 -5 16 -14 16 -21 0 -8 -3 -8 -8
-2 -12 17 -42 18 -36 0 6 -16 -33 -37 -50 -27 -5 3 -6 0 -2 -6 4 -7 4 -12 -1
-12 -4 0 -17 -7 -27 -15 -15 -12 -17 -17 -7 -29 10 -12 9 -14 -8 -9 -13 3 -18
10 -13 21 4 12 -1 10 -18 -5 -12 -12 -28 -20 -33 -16 -6 3 -7 1 -3 -6 6 -9 11
-9 22 0 10 8 14 8 14 0 0 -10 -7 -13 -26 -10 -4 0 -10 -3 -13 -8 -3 -5 -17
-16 -31 -24 -19 -12 -29 -13 -42 -5 -9 5 -21 6 -25 2 -4 -5 -2 -11 5 -13 6 -3
12 -9 12 -15 0 -7 -5 -6 -14 1 -11 10 -20 10 -38 0 -13 -7 -24 -12 -25 -11 -2
1 -10 2 -19 2 -9 0 -12 -5 -8 -12 4 -8 3 -9 -2 -5 -5 5 -9 14 -9 20 0 17 -19
15 -22 -1 -1 -8 -5 -17 -9 -20 -4 -4 -4 1 -1 10 8 21 -7 31 -33 23 -13 -4 -17
-11 -13 -23 6 -14 5 -15 -9 -2 -9 8 -14 18 -11 23 2 4 1 6 -4 5 -4 -1 -19 3
-33 10 -21 11 -22 11 -10 0 8 -7 22 -22 30 -33 14 -18 14 -18 -15 1 -53 36
-59 39 -52 21 3 -8 0 -18 -8 -20 -9 -4 -12 2 -11 17 2 13 -3 23 -10 23 -6 0
-10 -6 -7 -13 2 -6 -1 -15 -8 -20 -7 -4 -10 -3 -6 3 4 6 0 14 -9 17 -8 3 -12
2 -9 -4 3 -6 1 -10 -4 -10 -6 0 -11 5 -11 11 0 5 -4 7 -10 4 -5 -3 -10 -1 -10
6 0 7 -8 5 -21 -7 -22 -19 -22 -19 -10 4 6 12 17 22 23 22 6 0 8 3 5 6 -4 4
-18 -1 -32 -10 -26 -17 -26 -17 -16 3 8 14 8 22 -1 27 -7 4 -8 3 -4 -4 7 -12
-32 -38 -42 -28 -3 3 0 6 7 6 18 0 -3 33 -23 36 -9 1 -14 -2 -11 -6 3 -5 2
-11 -3 -14 -5 -3 -9 1 -10 9 -1 8 -3 22 -4 30 -1 8 -5 15 -10 15 -5 0 -8 -6
-6 -12 2 -7 -2 -15 -7 -18 -6 -3 -10 4 -10 14 0 11 -7 21 -15 23 -12 4 -12 3
-1 -5 7 -5 9 -12 4 -15 -5 -3 -14 3 -21 14 -7 10 -9 19 -5 18 19 -3 33 2 33
12 0 8 -5 8 -15 -1 -8 -7 -15 -9 -15 -5 0 4 -6 2 -14 -4 -10 -8 -16 -9 -21 -1
-3 5 1 13 9 16 16 6 12 24 -5 24 -6 0 -7 -4 -4 -10 3 -5 2 -10 -4 -10 -5 0
-13 9 -16 20 -3 11 -11 20 -16 20 -6 0 -7 4 -4 10 7 12 -55 51 -68 43 -6 -4
-7 -1 -3 6 5 7 14 10 22 7 8 -3 14 -1 14 4 0 14 -34 12 -48 -2 -9 -9 -11 -7
-7 10 2 11 -3 26 -11 32 -14 13 -10 30 8 30 5 0 8 -7 5 -15 -4 -8 -2 -17 4
-20 5 -4 6 -11 3 -17 -4 -7 -2 -8 5 -4 6 4 8 13 4 19 -4 7 -8 19 -8 27 0 10
-8 14 -23 13 -13 -2 -21 1 -17 6 3 5 -5 17 -17 25 -12 9 -19 16 -14 16 5 0 3
6 -3 13 -6 8 -8 17 -4 21 4 4 1 11 -7 16 -8 5 -11 12 -7 16 4 4 13 -1 20 -11
12 -15 14 -16 14 -1 0 9 -4 16 -9 16 -5 0 -6 4 -3 10 3 6 -1 7 -9 4 -11 -4
-16 0 -16 10 0 9 6 16 13 17 8 0 8 2 -2 6 -11 5 -11 7 0 15 11 8 11 9 -1 5 -8
-2 -14 -10 -13 -16 2 -6 -2 -11 -8 -11 -6 0 -8 9 -4 20 5 16 3 19 -12 14 -14
-5 -15 -4 -3 4 8 6 17 9 20 7 4 -2 7 2 7 10 0 9 -7 14 -15 13 -12 -2 -16 10
-17 58 -1 33 -5 67 -9 75 -4 8 -1 6 8 -4 8 -11 12 -26 9 -35 -4 -14 -3 -15 5
-3 7 10 7 21 1 33 -6 10 -7 24 -3 30 4 7 3 8 -5 4 -7 -5 -10 -2 -9 5 2 7 -2
13 -9 14 -6 0 -15 4 -20 9 -4 5 -3 6 4 2 6 -3 14 -2 18 4 4 6 11 7 17 4 6 -4
8 1 3 16 -5 15 -3 20 3 16 6 -3 14 -1 18 5 4 8 3 9 -4 5 -7 -4 -12 -3 -12 3 0
5 4 12 9 15 5 4 8 14 6 24 -1 9 2 25 7 34 7 14 5 16 -8 11 -11 -4 -15 -2 -11
5 4 6 9 24 11 42 4 39 12 46 31 30 21 -18 19 -2 -3 18 -10 10 -13 13 -6 9 7
-4 15 -3 19 3 3 5 1 10 -4 10 -6 0 -11 8 -10 18 0 10 3 12 6 5 7 -20 23 -15
16 5 -6 15 -5 15 10 3 22 -17 22 -8 1 14 -15 15 -15 17 0 34 9 10 13 22 9 27
-5 5 2 0 15 -11 22 -18 23 -18 16 0 -5 12 -4 16 4 11 8 -5 10 -1 5 10 -5 13
-3 15 7 9 9 -6 11 -4 5 5 -6 10 -11 10 -20 -4 -11 -15 -13 -15 -19 -1 -3 9 -2
13 3 10 5 -3 13 0 16 6 4 5 13 8 20 5 10 -3 12 2 9 20 -4 21 -1 24 26 24 26 0
29 2 18 14 -7 8 -17 11 -23 8 -6 -3 -6 -1 -2 4 5 5 13 10 18 10 5 1 10 2 12 4
5 4 44 11 62 11 15 0 16 2 6 8 -8 5 -26 7 -40 4 -14 -2 -23 -1 -19 2 3 4 14 8
25 10 10 1 17 9 15 16 -2 8 0 11 4 7 4 -4 12 0 19 9 9 13 14 13 20 3 5 -8 4
-11 -1 -7 -6 3 -15 -2 -21 -12 -9 -14 -8 -18 3 -18 7 0 11 4 9 8 -3 4 2 10 11
13 9 3 14 13 11 21 -4 9 -1 12 8 8 8 -3 13 -8 10 -12 -2 -4 2 -8 10 -8 8 0 13
3 10 5 -3 3 1 12 8 21 11 14 10 14 -5 2 -12 -9 -18 -10 -18 -2 0 6 5 11 11 11
5 0 7 6 3 13 -4 6 2 4 12 -5 17 -15 23 -16 39 -4 10 7 15 18 11 25 -4 6 -4 11
1 10 19 -3 34 2 28 10 -3 5 0 13 6 17 7 4 10 3 7 -2 -3 -5 -2 -18 3 -29 6 -17
8 -17 8 -2 1 9 6 17 12 17 5 0 7 5 3 12 -4 7 -3 8 4 4 7 -4 12 -1 13 6 0 9 2
9 5 2 3 -7 14 -9 26 -6 14 3 19 1 15 -6 -4 -6 0 -9 10 -7 10 1 25 -3 33 -9 13
-10 13 -9 1 6 -7 10 -18 15 -24 11 -6 -3 -7 -1 -3 5 4 6 13 9 22 5 8 -3 14 -2
13 3 -2 13 0 24 5 24 3 0 3 -9 1 -20z m650 0 c-3 -5 -12 -10 -18 -10 -7 0 -6
4 3 10 19 12 23 12 15 0z m-389 -12 c-10 -6 -22 -6 -26 -2 -5 5 3 10 18 11 22
1 24 0 8 -9z m78 -19 c-2 -4 2 -9 8 -12 7 -2 11 -7 8 -10 -3 -3 -16 2 -28 12
-21 16 -22 17 -3 17 11 0 18 -3 15 -7z m-548 -18 c-4 -5 -1 -11 6 -13 8 -3 6
-6 -4 -10 -11 -5 -15 -2 -13 10 5 23 4 22 11 22 3 0 3 -4 0 -9z m-316 -16 c0
-12 -19 -12 -23 0 -4 9 -1 12 9 8 7 -3 14 -7 14 -8z m1188 -220 c-3 -3 -9 2
-12 12 -6 14 -5 15 5 6 7 -7 10 -15 7 -18z m276 -104 c3 -5 -2 -15 -12 -22
-15 -13 -16 -12 -4 3 10 13 10 17 0 21 -9 4 -9 6 -1 6 6 1 14 -3 17 -8z m-194
-41 c0 -5 -8 -10 -17 -10 -15 0 -16 2 -3 10 19 12 20 12 20 0z m-1490 -13 c0
-2 -10 -12 -21 -23 -22 -19 -22 -19 -8 4 12 19 29 30 29 19z m1500 -13 c0 -8
-19 -13 -24 -6 -3 5 1 9 9 9 8 0 15 -2 15 -3z m-1523 -49 c0 -8 -4 -12 -9 -9
-5 3 -6 10 -3 15 9 13 12 11 12 -6z m189 -59 c-2 -27 -23 -56 -40 -56 -6 0 -3
5 7 11 9 6 15 14 12 19 -3 5 -1 11 4 15 6 3 8 12 4 20 -3 8 -1 15 4 15 6 0 9
-11 9 -24z m1558 -7 c-3 -5 -10 -7 -15 -3 -5 3 -7 10 -3 15 3 5 10 7 15 3 5
-3 7 -10 3 -15z m-1764 -300 c0 -5 -4 -9 -8 -9 -5 0 -9 7 -9 15 0 8 4 12 9 9
4 -3 8 -9 8 -15z m5 -29 c3 -6 -1 -7 -9 -4 -18 7 -21 14 -7 14 6 0 13 -4 16
-10z m1519 -81 c-3 -5 -10 -7 -15 -3 -5 3 -7 10 -3 15 3 5 10 7 15 3 5 -3 7
-10 3 -15z m-1499 -8 c-3 -5 -1 -12 5 -16 6 -4 8 -11 4 -16 -9 -14 -23 -1 -19
19 5 23 4 22 11 22 3 0 3 -4 -1 -9z m35 -41 c0 -5 -5 -10 -11 -10 -5 0 -7 5
-4 10 3 6 8 10 11 10 2 0 4 -4 4 -10z m1640 -54 c0 -2 -6 -9 -14 -15 -11 -9
-16 -9 -22 0 -4 7 -3 9 4 5 6 -3 13 -2 17 4 6 10 15 14 15 6z m-1620 -36 c-6
-11 -13 -20 -16 -20 -2 0 0 9 6 20 6 11 13 20 16 20 2 0 0 -9 -6 -20z m280
-66 c0 -8 -19 -13 -24 -6 -3 5 1 9 9 9 8 0 15 -2 15 -3z m21 -28 c-6 -7 -7
-17 -3 -21 4 -5 2 -5 -5 -2 -9 6 -10 18 -4 45 1 2 6 0 11 -3 8 -5 8 -11 1 -19z
m921 -63 c-6 -2 -9 -10 -6 -15 4 -6 2 -8 -4 -4 -6 3 -18 -1 -26 -10 -9 -8 -16
-11 -16 -6 0 11 40 41 55 41 6 0 4 -3 -3 -6z m-1096 -22 c0 -16 -3 -17 -14 -9
-12 10 -7 19 13 28 1 0 1 -9 1 -19z m365 -64 c-10 -9 -11 -8 -5 6 3 10 9 15
12 12 3 -3 0 -11 -7 -18z m-281 -12 c0 -2 -9 -3 -19 -2 -11 0 -18 5 -15 9 4 6
34 0 34 -7z m1190 -9 c0 -3 -4 -8 -10 -11 -5 -3 -10 -1 -10 4 0 6 5 11 10 11
6 0 10 -2 10 -4z m-661 -39 c8 -10 7 -14 -2 -14 -8 0 -14 6 -14 14 0 7 1 13 2
13 2 0 8 -6 14 -13z m101 -2 c0 -8 -2 -15 -4 -15 -2 0 -6 7 -10 15 -3 8 -1 15
4 15 6 0 10 -7 10 -15z m-546 -3 c3 -5 -1 -9 -9 -9 -8 0 -12 4 -9 9 3 4 7 8 9
8 2 0 6 -4 9 -8z m299 -155 c7 3 8 2 4 -2 -14 -16 -36 -14 -29 3 4 10 7 12 10
4 2 -7 9 -9 15 -5z m377 -23 c0 -2 -9 0 -20 6 -11 6 -20 13 -20 16 0 2 9 0 20
-6 11 -6 20 -13 20 -16z m-240 0 c0 -8 -19 -13 -24 -6 -3 5 1 9 9 9 8 0 15 -2
15 -3z m95 -4 c3 -6 -1 -7 -9 -4 -18 7 -21 14 -7 14 6 0 13 -4 16 -10z"/>
<path d="M3321 4153 c-10 -11 -10 -17 -2 -24 6 -5 9 -6 6 -3 -3 4 0 13 7 21
15 19 6 24 -11 6z"/>
<path d="M3350 4161 c0 -6 4 -13 10 -16 6 -3 7 1 4 9 -7 18 -14 21 -14 7z"/>
<path d="M3265 4129 c-4 -6 -5 -12 -2 -15 2 -3 7 2 10 11 7 17 1 20 -8 4z"/>
<path d="M3045 4000 c-3 -5 -1 -10 4 -10 6 0 11 5 11 10 0 6 -2 10 -4 10 -3 0
-8 -4 -11 -10z"/>
<path d="M3006 3947 c3 -10 9 -15 12 -12 3 3 0 11 -7 18 -10 9 -11 8 -5 -6z"/>
<path d="M3476 3922 c-3 -5 1 -9 9 -9 8 0 12 4 9 9 -3 4 -7 8 -9 8 -2 0 -6 -4
-9 -8z"/>
<path d="M4038 3913 c7 -3 16 -2 19 1 4 3 -2 6 -13 5 -11 0 -14 -3 -6 -6z"/>
<path d="M3419 3903 c-1 -5 -1 -11 0 -15 0 -5 -5 -9 -11 -9 -7 -1 -20 -2 -28
-3 -8 -1 -22 3 -30 8 -12 8 -13 8 -2 -4 15 -17 63 -20 75 -5 5 6 7 4 4 -5 -2
-8 -13 -16 -25 -16 -48 -3 -53 -4 -47 -14 4 -6 -1 -7 -11 -3 -13 5 -15 3 -9
-7 6 -9 4 -11 -5 -5 -10 6 -9 11 5 21 16 12 16 13 -2 11 -11 0 -20 -7 -21 -14
-1 -7 -3 -20 -4 -28 -1 -8 -5 -12 -10 -9 -5 3 -6 9 -3 14 3 5 1 11 -4 14 -5 4
-8 -5 -6 -19 1 -14 -2 -28 -8 -32 -6 -4 -7 -1 -2 7 6 10 4 12 -8 7 -11 -4 -17
-1 -17 8 0 7 -4 16 -9 19 -5 4 -7 -2 -4 -13 3 -10 0 -22 -7 -26 -8 -5 -7 -11
2 -23 11 -13 11 -14 -1 -7 -11 6 -13 4 -8 -8 3 -9 1 -19 -5 -23 -7 -4 -8 -3
-4 4 4 7 3 12 -3 12 -6 0 -8 8 -4 18 3 9 3 14 -2 10 -12 -11 -12 -52 -1 -60 6
-4 7 -10 3 -15 -9 -9 -28 17 -21 29 3 4 2 8 -3 8 -16 0 -30 -46 -21 -70 6 -16
5 -26 -3 -31 -6 -4 -8 -12 -4 -19 5 -8 4 -11 -3 -7 -5 4 -21 3 -34 -2 -19 -8
-19 -10 -4 -10 12 -1 16 -6 12 -17 -4 -10 -2 -13 7 -8 6 4 9 4 5 -1 -4 -4 -2
-15 5 -24 11 -14 10 -15 -8 -1 -11 8 -23 20 -27 25 -5 6 -8 6 -8 -1 0 -6 9
-21 20 -34 24 -28 26 -37 3 -19 -15 13 -15 12 -6 -6 6 -11 8 -26 5 -34 -3 -9
0 -11 8 -6 9 5 11 4 6 -4 -4 -6 -11 -9 -15 -7 -4 3 -13 0 -21 -6 -12 -8 -12
-9 3 -4 11 3 20 0 23 -9 4 -8 11 -12 18 -9 6 3 2 -2 -8 -10 -20 -16 -20 -16 0
-17 18 0 18 -1 -1 -9 -11 -5 -16 -9 -11 -9 6 -1 1 -8 -10 -17 -16 -13 -14 -13
9 1 28 16 28 16 17 -6 -11 -19 -10 -21 4 -16 9 4 15 1 13 -6 -1 -7 3 -11 9
-10 7 1 10 -10 8 -27 -3 -29 7 -37 39 -31 5 1 5 -3 2 -9 -4 -7 3 -22 15 -35
12 -13 23 -36 23 -50 0 -23 1 -24 13 -8 9 14 16 15 24 7 9 -9 9 -14 -1 -19 -8
-5 -10 -4 -5 3 4 7 2 12 -4 12 -7 0 -10 -5 -8 -12 3 -7 21 -12 41 -11 20 0 37
-4 37 -9 0 -5 -9 -7 -19 -3 -22 7 -37 -10 -20 -21 8 -4 9 -3 5 4 -4 7 -2 12 3
12 6 0 11 -8 11 -17 0 -11 3 -14 8 -7 4 6 15 14 25 17 14 5 20 2 24 -13 6 -23
14 -25 32 -7 11 10 12 7 6 -13 -4 -17 -3 -21 3 -11 8 11 12 10 21 -5 6 -11 11
-14 11 -7 0 6 9 10 19 8 11 -2 22 3 25 11 3 8 11 14 18 13 10 0 10 -2 1 -6 -7
-2 -13 -12 -13 -21 0 -15 2 -15 10 -2 9 14 15 7 11 -14 -1 -5 5 -4 13 4 9 7
16 18 16 24 0 6 -5 4 -10 -4 -5 -8 -10 -10 -10 -5 0 6 4 16 9 24 7 11 10 9 16
-8 6 -21 8 -21 19 -5 10 13 15 14 21 4 5 -9 4 -11 -3 -6 -7 4 -12 2 -12 -4 0
-7 6 -10 13 -7 6 2 11 11 10 18 -2 9 6 15 19 16 16 2 19 0 10 -6 -11 -7 -10
-10 3 -14 10 -4 14 -3 9 4 -4 8 1 9 15 4 22 -7 29 9 9 21 -7 5 -8 3 -3 -6 5
-9 4 -11 -4 -6 -17 11 4 35 27 31 9 -1 21 3 25 9 5 7 7 5 5 -6 -2 -9 2 -17 7
-17 6 0 9 7 7 16 -2 8 1 12 7 9 5 -4 12 -2 16 4 4 6 11 7 17 4 7 -4 8 -2 4 4
-6 10 3 16 24 14 3 0 5 14 4 32 -1 21 3 33 12 34 8 1 21 3 29 4 8 1 15 5 15
10 0 5 -10 7 -22 3 -20 -5 -21 -5 -5 5 9 6 15 15 12 21 -4 5 -1 9 5 9 6 0 9 4
6 9 -3 4 9 7 27 5 22 -3 28 -1 17 5 -8 6 -17 8 -21 5 -4 -2 -11 1 -15 7 -4 7
-3 9 4 5 6 -3 14 -2 17 4 5 8 12 7 23 -2 15 -11 15 -11 4 4 -11 14 -10 18 5
28 13 8 13 10 2 7 -9 -3 -21 4 -28 15 -10 16 -10 18 0 12 8 -5 11 -2 7 8 -4 8
0 15 7 15 11 0 11 -5 3 -21 -10 -20 -9 -20 11 1 22 23 26 34 14 32 -5 -1 -15
-1 -23 0 -12 1 -12 3 -2 9 19 13 24 72 6 79 -8 3 -14 9 -14 14 0 4 6 6 14 3 8
-3 17 0 22 7 4 8 3 10 -4 5 -7 -4 -12 -2 -12 3 0 6 5 11 12 11 6 0 9 3 6 6 -4
3 -17 1 -30 -6 l-23 -11 22 19 c19 17 20 21 7 26 -9 4 -12 2 -8 -5 4 -8 0 -7
-15 0 -24 13 -28 23 -6 15 20 -8 19 3 -1 24 -15 14 -15 17 0 28 15 11 15 12 0
18 -23 9 -31 7 -14 -4 8 -5 10 -10 4 -10 -15 0 -36 25 -28 33 3 3 12 3 20 0 8
-3 14 0 14 7 0 6 -4 9 -9 6 -4 -3 -17 2 -27 10 -10 9 -13 12 -5 8 9 -5 12 -3
7 5 -4 6 -16 9 -27 6 -11 -4 -19 -2 -19 5 0 6 5 8 10 5 6 -3 10 1 10 9 0 18
-11 21 -27 5 -7 -7 -10 -4 -9 13 2 26 -12 63 -21 54 -3 -3 0 -14 8 -23 7 -10
9 -15 5 -11 -5 4 -16 2 -25 -5 -14 -11 -15 -10 -1 7 14 18 13 19 -4 13 -16 -6
-17 -5 -6 8 11 13 8 15 -21 16 -29 0 -31 2 -14 10 17 8 16 9 -8 5 -27 -3 -27
-3 -10 17 12 14 13 18 3 12 -8 -5 -19 -10 -25 -11 -5 -1 -14 -3 -20 -5 -5 -2
-10 1 -10 6 0 6 3 9 7 8 3 -1 9 5 12 14 6 14 4 14 -18 -1 -31 -20 -36 -20 -36
0 0 9 5 12 12 8 7 -4 8 -3 4 4 -5 9 -13 9 -26 2 -25 -13 -33 -13 -24 2 4 7 3
8 -5 4 -9 -6 -9 -11 1 -23 12 -15 11 -15 -9 -2 -19 11 -27 12 -44 1 -12 -8
-18 -9 -15 -3 4 5 2 12 -4 16 -10 6 -15 -9 -10 -30 1 -5 -2 -6 -7 -2 -4 5 -8
14 -8 20 0 7 -12 11 -28 10 -15 -1 -25 2 -22 7 4 6 4 10 1 10 -3 0 -7 -3 -7
-7z m44 -30 c-3 -7 -6 -13 -8 -13 -2 0 -5 6 -8 13 -3 8 1 14 8 14 7 0 11 -6 8
-14z m-213 -93 c0 -5 -5 -10 -11 -10 -5 0 -7 5 -4 10 3 6 8 10 11 10 2 0 4 -4
4 -10z m-70 -90 c0 -5 -5 -10 -11 -10 -5 0 -7 5 -4 10 3 6 8 10 11 10 2 0 4
-4 4 -10z m347 -6 c0 -7 -3 -11 -7 -9 -4 2 -7 -2 -7 -10 0 -21 15 -19 21 3 7
20 36 26 36 8 0 -6 5 -4 11 4 8 12 9 10 4 -9 -5 -15 -3 -21 3 -17 6 4 15 -2
21 -11 6 -11 11 -13 11 -5 0 7 5 10 12 6 7 -4 8 -3 4 5 -4 6 -11 9 -16 6 -4
-3 -11 2 -14 10 -4 12 -2 13 13 6 10 -6 21 -8 24 -5 8 9 3 -19 -7 -35 -6 -9
-5 -12 2 -7 6 3 13 2 17 -4 4 -6 12 -7 18 -3 7 4 5 -2 -3 -12 -14 -17 -14 -18
9 -6 13 7 21 8 17 3 -3 -6 -3 -12 1 -15 5 -2 3 -2 -4 -1 -7 2 -15 -1 -18 -7
-4 -5 -1 -8 6 -7 6 2 14 -3 17 -11 2 -8 0 -11 -6 -7 -6 3 -13 2 -16 -3 -4 -5
2 -8 11 -7 21 3 53 -14 53 -28 0 -6 -5 -5 -12 2 -7 7 -19 12 -27 12 -11 0 -10
-4 5 -16 10 -8 14 -13 7 -10 -7 4 -9 -1 -5 -16 3 -12 1 -19 -4 -15 -5 3 -10
-8 -10 -23 -1 -16 4 -31 12 -34 8 -3 14 -11 14 -18 0 -9 -3 -8 -10 2 -5 8 -10
11 -10 6 0 -5 -8 -2 -17 5 -10 8 -14 9 -10 2 4 -6 3 -14 -2 -17 -5 -4 -8 -17
-6 -31 2 -22 0 -23 -13 -13 -12 10 -14 10 -8 1 4 -7 2 -21 -4 -30 -11 -16 -11
-16 -6 -1 3 10 0 20 -6 24 -7 5 -8 2 -3 -6 6 -10 4 -12 -10 -6 -14 5 -15 4 -7
-7 7 -8 7 -18 2 -27 -7 -11 -10 -12 -10 -2 0 7 -4 10 -10 7 -5 -3 -7 0 -4 8 3
8 0 18 -7 23 -7 4 -10 3 -6 -4 10 -14 -2 -42 -18 -42 -7 0 -15 -3 -18 -7 -2
-5 -3 -3 -2 2 2 6 -3 16 -10 22 -10 10 -14 9 -19 -3 -4 -10 -2 -13 7 -8 8 5 7
2 -2 -9 -17 -22 -21 -21 -16 1 2 13 -4 18 -23 20 -25 2 -25 2 -6 -13 18 -15
18 -16 -4 -5 -12 6 -21 14 -18 18 2 4 -2 16 -11 27 -14 19 -14 19 -8 -7 4 -17
3 -28 -3 -28 -5 0 -9 8 -8 18 0 10 -5 16 -14 14 -12 -3 -13 -1 -2 9 6 7 12 18
12 24 0 5 -4 3 -10 -5 -5 -8 -12 -11 -16 -7 -4 3 -1 14 7 24 8 9 9 14 2 10 -7
-4 -16 0 -22 10 -5 10 -13 14 -17 10 -4 -4 1 -14 12 -22 16 -12 17 -14 3 -15
-18 0 -33 26 -23 41 3 5 1 9 -4 9 -6 0 -8 9 -5 20 3 12 2 20 -3 18 -5 -2 -9 2
-9 7 0 6 4 9 8 7 5 -1 7 3 4 10 -2 7 -10 12 -16 11 -6 -2 -11 2 -11 7 0 6 5
10 11 10 6 0 8 7 5 16 -3 9 -2 12 5 9 6 -4 8 -14 4 -24 -5 -12 -3 -13 5 -5 9
9 9 17 1 31 -6 13 -7 23 0 30 5 5 11 20 14 33 6 31 15 38 12 9 -1 -13 3 -24 8
-25 6 0 9 8 7 19 -3 14 0 17 10 11 11 -6 11 -5 0 8 -10 13 -10 18 -1 24 8 4 9
3 5 -4 -4 -7 -2 -12 3 -12 6 0 11 5 11 10 0 12 26 14 33 3 2 -5 2 -2 0 6 -2 9
2 11 13 7 13 -5 14 -4 6 7 -9 10 -6 13 16 13 15 -1 26 4 25 10 -1 6 4 11 11
11 7 0 13 -6 13 -13z m157 -42 c3 -5 -1 -9 -9 -9 -8 0 -12 4 -9 9 3 4 7 8 9 8
2 0 6 -4 9 -8z m47 -165 c-6 -8 -8 -17 -4 -20 3 -4 -1 -7 -10 -7 -15 0 -15 3
-5 20 7 11 17 20 22 20 4 0 3 -6 -3 -13z m199 3 c0 -5 -5 -10 -11 -10 -5 0 -7
5 -4 10 3 6 8 10 11 10 2 0 4 -4 4 -10z m-203 -46 c-3 -3 -12 -4 -19 -1 -8 3
-5 6 6 6 11 1 17 -2 13 -5z m-34 -77 c-8 -13 -21 2 -18 21 6 28 6 28 14 7 5
-11 6 -23 4 -28z m213 1 c4 -7 3 -8 -4 -4 -7 4 -12 2 -12 -5 0 -7 -3 -10 -6
-6 -6 5 3 27 11 27 2 0 7 -5 11 -12z m-138 -195 c-6 -8 -14 -11 -17 -7 -3 4
-1 9 6 11 7 2 9 12 6 21 -4 14 -3 15 5 2 8 -10 8 -18 0 -27z m-283 -65 c5 4 5
2 2 -5 -6 -9 -18 -10 -45 -4 -2 1 0 6 3 11 5 8 11 8 19 1 7 -6 17 -7 21 -3z"/>
<path d="M3550 3660 c0 -5 5 -10 11 -10 5 0 7 5 4 10 -3 6 -8 10 -11 10 -2 0
-4 -4 -4 -10z"/>
<path d="M3345 3561 c-3 -5 -2 -12 3 -15 5 -3 9 1 9 9 0 17 -3 19 -12 6z"/>
<path d="M3353 3474 c0 -17 2 -22 7 -13 5 6 6 18 3 26 -8 19 -10 16 -10 -13z"/>
<path d="M4083 3873 c-15 -5 -17 -23 -4 -23 5 0 11 7 15 15 3 8 4 15 3 14 -1
0 -8 -3 -14 -6z"/>
<path d="M2924 3848 c-4 -6 -3 -8 4 -4 5 3 13 0 15 -6 3 -8 6 -6 6 5 1 19 -14
23 -25 5z"/>
<path d="M2870 3720 c0 -5 5 -10 10 -10 6 0 10 5 10 10 0 6 -4 10 -10 10 -5 0
-10 -4 -10 -10z"/>
<path d="M3136 3638 c5 -8 1 -9 -12 -4 -15 6 -17 5 -6 -5 10 -11 15 -10 29 4
16 16 16 17 0 17 -11 0 -15 -4 -11 -12z"/>
<path d="M3896 3638 c3 -4 9 -8 15 -8 5 0 9 4 9 8 0 5 -7 9 -15 9 -8 0 -12 -4
-9 -9z"/>
<path d="M4156 3642 c-3 -5 1 -9 9 -9 8 0 12 4 9 9 -3 4 -7 8 -9 8 -2 0 -6 -4
-9 -8z"/>
<path d="M4187 3599 c4 -13 8 -18 11 -10 2 7 -1 18 -6 23 -8 8 -9 4 -5 -13z"/>
<path d="M2840 3516 c7 -7 13 -7 20 0 6 6 3 10 -10 10 -13 0 -16 -4 -10 -10z"/>
<path d="M3099 3497 c6 -8 7 -18 3 -22 -4 -5 -1 -5 6 -1 10 6 10 11 1 22 -6 8
-14 14 -16 14 -3 0 0 -6 6 -13z"/>
<path d="M4190 3419 c0 -5 5 -7 10 -4 6 3 10 8 10 11 0 2 -4 4 -10 4 -5 0 -10
-5 -10 -11z"/>
<path d="M2844 3376 c0 -19 4 -32 9 -29 4 2 5 16 3 30 -7 38 -14 38 -12 -1z"/>
<path d="M3095 3400 c3 -5 8 -10 11 -10 2 0 4 5 4 10 0 6 -5 10 -11 10 -5 0
-7 -4 -4 -10z"/>
<path d="M4177 3325 c3 -8 9 -12 14 -9 12 7 11 11 -5 17 -10 4 -13 1 -9 -8z"/>
<path d="M3126 3319 c3 -5 10 -7 15 -4 8 6 13 -9 10 -28 -1 -5 3 -6 9 -2 14 9
-3 38 -24 41 -9 1 -14 -2 -10 -7z"/>
<path d="M3893 3275 c0 -8 4 -12 9 -9 5 3 6 10 3 15 -9 13 -12 11 -12 -6z"/>
<path d="M3147 3259 c7 -7 15 -10 18 -7 3 3 -2 9 -12 12 -14 6 -15 5 -6 -5z"/>
<path d="M3187 3253 c-11 -10 -8 -23 4 -23 18 0 41 -30 35 -46 -3 -8 -2 -12 4
-9 17 11 11 33 -15 53 -13 11 -21 22 -18 26 3 3 4 6 1 6 -2 0 -8 -3 -11 -7z"/>
<path d="M3826 3215 c-9 -26 -7 -32 5 -12 6 10 9 21 6 23 -2 3 -7 -2 -11 -11z"/>
<path d="M2895 3181 c3 -6 14 -9 25 -8 23 2 17 10 -11 14 -11 2 -18 -1 -14 -6z"/>
<path d="M2922 3144 c10 -10 20 -15 24 -12 3 4 -5 12 -18 18 -22 12 -22 12 -6
-6z"/>
<path d="M4114 3152 c3 -6 0 -14 -8 -19 -8 -4 -15 -12 -15 -18 -1 -5 -5 -10
-10 -10 -5 0 -12 -3 -15 -7 -3 -5 -3 -6 1 -3 3 3 12 0 19 -6 8 -7 14 -7 19 1
3 5 3 10 -1 10 -3 0 1 11 10 24 11 18 13 27 4 32 -6 4 -8 3 -4 -4z"/>
<path d="M3701 3114 c0 -11 3 -14 6 -6 3 7 2 16 -1 19 -3 4 -6 -2 -5 -13z"/>
<path d="M3363 3113 c-17 -6 -17 -20 0 -20 8 0 14 6 14 14 0 7 -1 13 -1 12 -1
0 -7 -3 -13 -6z"/>
<path d="M3936 2957 c3 -10 9 -15 12 -12 3 3 0 11 -7 18 -10 9 -11 8 -5 -6z"/>
<path d="M3716 2842 c-3 -5 1 -9 9 -9 8 0 12 4 9 9 -3 4 -7 8 -9 8 -2 0 -6 -4
-9 -8z"/>
<path d="M3766 2835 c5 -13 4 -16 -4 -11 -7 4 -12 1 -12 -9 0 -14 2 -14 25 1
14 9 25 21 24 28 0 7 -3 6 -6 -2 -4 -10 -8 -10 -19 -1 -12 10 -13 9 -8 -6z"/>
<path d="M3674 2815 c1 -8 6 -18 11 -22 4 -4 5 -3 2 4 -4 6 -2 13 5 15 8 3 6
6 -4 10 -10 4 -15 2 -14 -7z"/>
<path d="M3348 2813 c7 -3 16 -2 19 1 4 3 -2 6 -13 5 -11 0 -14 -3 -6 -6z"/>
<path d="M3630 2796 c0 -8 9 -14 19 -13 15 1 17 4 9 14 -14 17 -28 16 -28 -1z"/>
<path d="M4550 4419 c0 -5 5 -7 10 -4 6 3 10 8 10 11 0 2 -4 4 -10 4 -5 0 -10
-5 -10 -11z"/>
<path d="M3355 4411 c-3 -5 0 -13 6 -17 7 -4 9 -3 5 4 -3 5 0 13 6 15 9 4 10
6 1 6 -6 1 -14 -3 -18 -8z"/>
<path d="M3330 4399 c0 -5 -4 -7 -10 -4 -5 3 -10 2 -10 -4 0 -5 9 -9 19 -8 11
0 17 6 14 14 -6 16 -13 17 -13 2z"/>
<path d="M3754 4402 c3 -5 0 -13 -6 -15 -8 -3 -6 -6 5 -6 19 -1 23 14 5 25 -6
4 -8 3 -4 -4z"/>
<path d="M4135 4380 c6 -10 4 -12 -8 -7 -21 8 -22 3 -3 -12 10 -9 15 -8 19 3
4 9 1 18 -5 22 -7 5 -8 2 -3 -6z"/>
<path d="M3240 4370 c8 -5 20 -10 25 -10 6 0 3 5 -5 10 -8 5 -19 10 -25 10 -5
0 -3 -5 5 -10z"/>
<path d="M3787 4364 c3 -7 9 -14 14 -14 14 0 10 17 -5 23 -10 4 -13 1 -9 -9z"/>
<path d="M3075 4309 c-4 -6 -5 -12 -2 -15 2 -3 7 2 10 11 7 17 1 20 -8 4z"/>
<path d="M4232 4290 c0 -14 2 -19 5 -12 2 6 2 18 0 25 -3 6 -5 1 -5 -13z"/>
<path d="M4174 4142 c4 -3 14 -7 22 -8 9 -1 13 0 10 4 -4 3 -14 7 -22 8 -9 1
-13 0 -10 -4z"/>
<path d="M4177 4114 c-3 -5 2 -15 12 -21 14 -9 18 -8 18 3 0 7 -4 11 -8 8 -4
-2 -9 1 -11 8 -3 7 -7 8 -11 2z"/>
<path d="M4216 4055 c23 -17 34 -19 34 -4 0 5 -4 7 -10 4 -5 -3 -10 -1 -10 4
0 6 -8 11 -17 11 -15 0 -14 -2 3 -15z"/>
<path d="M2740 3986 c0 -2 8 -10 18 -17 15 -13 16 -12 3 4 -13 16 -21 21 -21
13z"/>
<path d="M4310 3951 c0 -6 4 -13 10 -16 6 -3 7 1 4 9 -7 18 -14 21 -14 7z"/>
<path d="M4430 3580 c-9 -6 -10 -10 -3 -10 6 0 15 5 18 10 8 12 4 12 -15 0z"/>
<path d="M4423 3515 c0 -6 6 -12 12 -12 6 0 12 6 12 12 0 6 -6 12 -12 12 -6 0
-12 -6 -12 -12z"/>
<path d="M4430 3479 c0 -5 5 -7 10 -4 6 3 10 8 10 11 0 2 -4 4 -10 4 -5 0 -10
-5 -10 -11z"/>
<path d="M4426 3349 c-12 -23 -12 -28 -2 -20 12 11 29 51 21 51 -2 0 -10 -14
-19 -31z"/>
<path d="M2596 3347 c3 -10 9 -15 12 -12 3 3 0 11 -7 18 -10 9 -11 8 -5 -6z"/>
<path d="M4405 3280 c-3 -5 -2 -10 4 -10 5 0 13 5 16 10 3 6 2 10 -4 10 -5 0
-13 -4 -16 -10z"/>
<path d="M4380 3195 c-10 -12 -10 -18 -2 -26 7 -5 10 -6 7 -3 -2 4 0 15 6 25
12 23 6 25 -11 4z"/>
<path d="M2720 3012 c9 -19 30 -23 30 -5 0 4 -3 3 -7 0 -3 -4 -12 1 -20 11
-13 15 -13 15 -3 -6z"/>
<path d="M2753 2968 c1 -15 6 -23 11 -18 4 4 4 16 -2 26 -9 16 -10 14 -9 -8z"/>
<path d="M2795 2919 c-10 -15 3 -25 16 -12 7 7 7 13 1 17 -6 3 -14 1 -17 -5z"/>
<path d="M4238 2903 c7 -3 16 -2 19 1 4 3 -2 6 -13 5 -11 0 -14 -3 -6 -6z"/>
<path d="M4160 2841 c-13 -25 -13 -41 1 -18 6 9 14 15 20 12 5 -3 6 1 3 9 -8
21 -11 20 -24 -3z"/>
<path d="M2633 2769 c-15 -15 -5 -39 16 -40 10 0 12 -2 3 -6 -7 -3 -20 1 -29
9 -15 12 -15 11 -4 -10 11 -21 10 -24 -8 -29 -11 -3 -18 -10 -14 -16 3 -6 1
-7 -5 -3 -17 10 -15 16 10 25 12 4 17 10 12 14 -6 3 -24 -7 -41 -23 -17 -16
-34 -26 -37 -23 -3 4 -6 4 -6 1 0 -3 8 -12 17 -19 14 -12 16 -12 8 0 -5 10 -4
12 4 7 9 -6 9 -11 0 -23 -11 -13 -14 -13 -26 3 -11 15 -14 13 -13 -11 1 -10
-28 -35 -41 -35 -8 0 -8 5 2 18 13 15 12 16 -3 4 -18 -14 -14 -47 5 -35 6 3 7
1 3 -6 -5 -8 -12 -9 -20 -2 -8 7 -12 4 -13 -10 -1 -12 2 -17 10 -13 7 4 8 3 4
-2 -5 -5 -14 -9 -20 -9 -7 -1 -11 -7 -9 -15 2 -8 0 -12 -3 -8 -4 4 -17 1 -28
-7 -15 -11 -24 -12 -34 -3 -7 6 -16 8 -20 4 -3 -3 -1 -6 5 -6 7 0 12 -5 12
-11 0 -5 -4 -8 -9 -5 -12 8 -33 -19 -23 -29 4 -5 1 -5 -5 -1 -7 4 -13 2 -13
-3 0 -6 -4 -11 -10 -11 -5 0 -7 7 -4 15 4 8 1 15 -7 15 -7 0 -9 -3 -6 -7 4 -3
2 -12 -4 -19 -7 -8 -6 -14 2 -20 8 -5 9 -3 4 6 -5 9 -4 11 4 6 19 -12 2 -27
-19 -16 -25 14 -30 13 -24 -5 4 -8 10 -12 15 -9 5 3 9 2 9 -1 0 -14 -65 -33
-77 -23 -9 7 -13 7 -13 -1 0 -6 4 -11 9 -11 6 0 9 -9 8 -20 -1 -10 -3 -17 -6
-15 -2 3 -10 0 -18 -6 -10 -9 -19 -7 -36 7 -15 13 -18 14 -9 2 10 -13 10 -17
0 -20 -8 -3 -6 -7 6 -11 11 -5 15 -3 10 5 -4 7 -3 8 4 4 6 -4 8 -14 5 -23 -5
-11 -8 -13 -11 -5 -3 10 -7 10 -20 0 -10 -8 -13 -9 -9 -1 4 6 3 15 -3 18 -6 4
-9 1 -8 -7 2 -7 -3 -12 -11 -10 -12 3 -12 0 -1 -12 15 -19 24 -21 14 -4 -4 7
-3 8 4 4 9 -5 8 -12 0 -26 -12 -19 -13 -19 -24 2 -7 13 -14 17 -18 9 -4 -6 -1
-11 6 -11 7 -1 2 -7 -12 -16 -23 -14 -23 -14 -2 -9 13 4 22 2 22 -5 0 -6 -4
-8 -10 -5 -5 3 -10 -1 -10 -10 0 -15 -1 -15 -16 -1 -23 24 -27 19 -8 -9 13
-20 14 -25 3 -23 -8 2 -13 -3 -11 -10 1 -8 -2 -11 -9 -6 -9 5 -10 2 -6 -9 4
-11 2 -14 -9 -10 -13 5 -12 9 6 28 20 21 20 23 3 36 -13 10 -15 10 -6 0 8 -10
6 -19 -9 -37 -12 -13 -25 -21 -29 -18 -4 2 -11 -1 -15 -8 -4 -7 -4 -10 1 -6 4
4 15 2 23 -5 13 -10 14 -9 7 2 -5 10 -4 12 4 7 15 -10 3 -29 -14 -22 -7 2 -16
-2 -19 -10 -3 -9 -10 -13 -14 -10 -4 2 -7 -8 -6 -24 2 -26 0 -28 -17 -19 -15
7 -19 7 -17 -3 2 -7 -2 -12 -7 -11 -6 1 -12 -12 -13 -28 -2 -22 1 -28 10 -23
8 4 10 3 5 -2 -5 -5 -14 -9 -20 -9 -7 -1 -11 -7 -9 -14 1 -7 -2 -10 -8 -6 -8
5 -7 11 1 21 10 12 9 17 0 27 -10 9 -11 8 -5 -7 5 -13 4 -17 -3 -13 -7 5 -10
-2 -9 -17 3 -28 -24 -41 -45 -22 -11 9 -11 8 -1 -5 7 -9 23 -15 38 -13 14 1
23 0 20 -4 -7 -6 -24 -10 -63 -14 -12 -1 -19 -6 -17 -10 3 -5 10 -6 15 -3 18
12 9 -17 -17 -51 -20 -26 -32 -33 -51 -30 -21 4 -23 3 -13 -10 15 -17 24 -19
14 -2 -4 7 -3 8 4 4 6 -4 8 -14 5 -22 -3 -9 -9 -12 -12 -7 -3 4 -13 9 -21 11
-12 3 -12 1 -3 -9 13 -13 7 -39 -9 -39 -7 0 -6 5 1 14 9 10 8 15 -3 19 -10 4
-13 1 -9 -9 3 -8 -1 -14 -8 -14 -8 0 -7 -5 5 -13 16 -12 15 -14 -8 -36 -14
-13 -23 -28 -19 -34 4 -6 1 -7 -7 -2 -10 6 -12 4 -7 -9 4 -9 3 -15 -2 -12 -5
3 -15 -2 -22 -11 -8 -9 -12 -17 -9 -19 3 -1 2 -5 -2 -9 -12 -12 -2 23 11 39 7
8 9 21 5 27 -4 7 -3 9 4 5 6 -3 13 -2 16 3 4 5 -1 8 -9 7 -9 -1 -15 -6 -14
-10 0 -4 -6 -18 -15 -30 -8 -13 -16 -34 -18 -47 -5 -32 -17 -51 -29 -44 -5 4
-9 1 -9 -4 0 -6 5 -11 12 -11 6 0 8 -3 5 -7 -4 -3 -17 2 -28 13 -22 19 -22 19
-9 -5 11 -21 10 -23 -4 -18 -8 3 -18 1 -22 -5 -5 -7 -2 -8 6 -3 10 6 12 4 7
-8 -3 -9 -3 -18 1 -20 4 -2 1 -2 -7 0 -7 2 -20 -2 -27 -8 -11 -9 -12 -15 -2
-26 9 -11 9 -16 -2 -23 -12 -7 -12 -11 0 -27 12 -15 11 -15 -9 2 l-24 20 5
-26 c4 -22 1 -26 -16 -24 -31 2 -39 -5 -24 -23 11 -13 11 -15 -4 -10 -10 4
-19 1 -22 -8 -10 -26 -7 -34 12 -27 11 4 10 0 -6 -11 -12 -10 -28 -14 -35 -10
-6 4 -3 -3 8 -16 l20 -23 -22 12 c-29 15 -34 14 -27 -4 4 -8 11 -12 18 -8 6 3
4 -2 -5 -13 -9 -10 -19 -26 -23 -34 -4 -9 -5 -6 -2 6 4 22 -15 27 -31 9 -4 -4
-2 -5 5 0 10 5 13 1 10 -16 -1 -12 -10 -25 -18 -27 -13 -5 -13 -3 0 14 14 18
14 18 -3 5 -10 -8 -14 -18 -9 -25 10 -13 10 -36 0 -36 -5 0 -11 0 -14 0 -4 0
-1 6 5 13 8 10 7 14 -3 14 -9 0 -13 -8 -11 -20 3 -12 0 -17 -9 -14 -7 3 -13
-1 -13 -9 0 -10 7 -12 20 -8 13 4 17 2 13 -5 -4 -6 -14 -11 -22 -11 -8 0 -14
-5 -14 -11 0 -5 5 -7 12 -3 7 4 8 3 4 -5 -4 -6 -12 -8 -18 -5 -8 5 -9 1 -5
-10 4 -9 3 -15 -2 -12 -4 3 -17 -2 -27 -10 -10 -9 -14 -13 -7 -10 6 3 10 0 9
-8 -3 -19 -26 -46 -39 -46 -6 0 -2 7 9 15 10 8 14 15 9 15 -21 0 -34 -22 -25
-41 8 -14 6 -16 -9 -12 -11 3 -28 0 -38 -7 -17 -10 -17 -11 2 -6 11 3 27 1 35
-4 16 -10 15 -11 -30 -14 -8 -1 -14 -9 -14 -19 1 -9 -5 -17 -15 -18 -10 0 -11
-2 -3 -6 6 -2 10 -9 6 -14 -3 -5 0 -9 5 -9 6 0 3 -8 -7 -18 -13 -14 -19 -15
-25 -5 -4 7 -13 13 -20 13 -7 0 -6 -4 3 -10 8 -5 11 -10 6 -10 -5 0 -2 -7 5
-17 13 -15 12 -15 -7 -5 -21 11 -34 7 -34 -10 0 -4 5 -8 11 -8 5 0 7 5 3 12
-4 7 -3 8 4 4 13 -8 -5 -46 -21 -46 -4 0 -5 5 -2 10 3 5 1 10 -6 10 -6 0 -9
-8 -6 -20 4 -17 2 -20 -16 -14 -20 6 -20 6 -4 -11 15 -14 20 -15 35 -3 15 12
16 11 4 -4 -13 -17 -55 -22 -45 -5 3 5 -4 4 -16 -2 -17 -10 -19 -16 -11 -31 8
-15 6 -19 -12 -22 -12 -2 -23 -9 -24 -16 -1 -7 0 -8 3 -2 7 15 20 12 20 -5 0
-8 -7 -17 -14 -19 -8 -3 -11 -10 -8 -16 3 -5 1 -10 -5 -10 -7 0 -10 6 -7 13 3
8 1 20 -5 28 -8 11 -9 10 -4 -3 3 -10 0 -18 -6 -18 -6 0 -8 -3 -5 -7 4 -3 -5
-17 -19 -30 -14 -12 -21 -23 -16 -23 5 0 15 7 22 15 7 8 18 15 24 14 7 0 6 -2
-2 -6 -6 -2 -10 -9 -6 -14 3 -5 0 -8 -8 -7 -8 2 -12 -5 -10 -20 2 -21 1 -22
-13 -8 -13 13 -20 13 -35 4 -13 -8 -16 -15 -8 -19 6 -4 13 -15 14 -23 1 -9 -2
-14 -7 -10 -5 3 -7 9 -5 13 3 4 -1 8 -9 8 -13 0 -13 -4 1 -25 11 -17 12 -22 3
-16 -8 5 -23 9 -34 11 -11 1 -14 -1 -7 -4 10 -4 10 -8 1 -19 -9 -11 -8 -18 2
-31 13 -15 12 -15 -8 -5 -18 10 -24 9 -36 -8 -7 -11 -16 -18 -18 -15 -3 2 -6
-5 -6 -17 -2 -17 1 -16 20 9 19 26 24 28 36 16 11 -12 10 -14 -5 -11 -12 2
-18 -2 -16 -10 1 -8 -2 -11 -8 -7 -9 5 -14 -7 -11 -27 0 -4 -10 -3 -24 2 -16
6 -27 6 -31 -2 -4 -7 -3 -8 4 -4 7 4 12 2 12 -4 0 -6 5 -8 10 -5 6 3 10 1 10
-5 0 -6 -11 -8 -25 -6 -13 3 -28 0 -31 -6 -4 -7 -2 -8 4 -4 7 4 12 2 12 -4 0
-6 4 -9 8 -6 4 2 8 -4 8 -15 0 -18 -2 -18 -11 -5 -8 10 -15 12 -22 5 -5 -5
-20 -11 -33 -14 -34 -7 -39 -17 -5 -11 28 5 29 4 11 -9 -10 -8 -22 -12 -26
-10 -5 3 -11 -2 -14 -11 -3 -8 -2 -12 4 -9 6 3 10 0 10 -8 0 -19 -30 -17 -31
2 0 10 -3 11 -5 4 -3 -7 -1 -20 5 -30 7 -15 6 -19 -9 -19 -10 0 -16 6 -13 13
3 7 0 13 -6 13 -6 0 -10 -3 -9 -7 4 -13 -34 -63 -42 -58 -5 3 -11 2 -14 -3 -8
-13 28 -11 36 2 5 7 8 7 8 -2 0 -7 5 -10 12 -6 7 4 8 3 4 -5 -4 -6 -12 -9 -17
-6 -5 4 -9 1 -9 -5 0 -6 -5 -8 -13 -4 -8 5 -8 2 2 -9 13 -17 26 -24 17 -9 -2
4 7 13 21 19 25 12 25 12 8 -7 -14 -15 -15 -20 -4 -20 11 0 11 -2 -1 -10 -12
-7 -10 -9 8 -7 13 1 21 6 18 13 -5 13 19 13 31 -1 4 -4 3 -5 -3 -2 -6 3 -11 0
-11 -8 0 -13 3 -13 17 0 23 20 36 19 19 -2 -8 -9 3 -4 24 12 29 22 41 25 47
16 9 -15 50 2 50 21 0 7 7 3 15 -8 13 -18 14 -18 9 6 -4 18 -3 21 4 11 8 -10
14 -11 28 -1 16 10 16 11 2 6 -11 -3 -17 0 -15 7 1 7 -4 11 -11 9 -8 -1 -11 2
-7 9 5 8 10 8 18 0 14 -14 50 -15 42 -1 -4 6 1 7 12 3 14 -5 16 -4 8 8 -5 8
-3 7 6 -3 15 -16 18 -16 23 -2 3 8 11 12 17 8 7 -4 7 1 -1 16 -7 12 -8 20 -2
16 12 -7 35 18 25 27 -3 4 -3 7 0 7 3 0 11 -9 17 -20 8 -16 8 -18 -4 -14 -8 3
-17 1 -21 -5 -4 -7 2 -10 17 -7 13 2 22 9 20 16 -2 7 3 10 12 7 11 -4 13 -1
10 11 -5 14 -3 13 10 -2 16 -20 21 -13 17 21 -2 13 37 38 46 29 3 -3 -4 -9
-15 -13 -20 -8 -20 -8 4 -20 22 -10 24 -10 14 2 -10 12 -7 17 14 25 24 9 26
12 15 32 -12 23 -12 23 9 5 17 -16 23 -17 35 -6 12 12 12 16 -2 27 -9 7 -11
11 -5 8 12 -6 29 21 25 39 -1 6 4 4 11 -4 10 -11 10 -14 1 -18 -17 -6 -16 -20
1 -26 11 -4 13 -1 9 10 -5 12 -2 15 10 10 9 -3 19 -1 23 5 4 6 3 8 -4 4 -6 -3
-13 -2 -17 4 -6 10 4 13 43 12 22 -1 28 8 15 21 -3 4 -12 2 -20 -4 -10 -9 -13
-8 -13 4 0 12 8 15 32 12 29 -4 30 -4 12 11 -10 9 -13 13 -6 9 6 -3 15 1 18 9
3 9 11 16 16 16 6 0 6 -6 -1 -14 -8 -10 -9 -16 -1 -21 5 -3 10 -5 11 -3 0 2 2
12 4 23 2 11 9 21 15 23 5 2 7 8 4 14 -4 5 4 4 17 -3 21 -11 23 -11 11 3 -10
13 -10 17 3 22 9 3 14 2 11 -3 -3 -5 0 -11 7 -14 10 -4 13 2 9 19 -2 13 0 24
7 24 5 0 8 -8 5 -17 -5 -15 -4 -16 5 -3 6 8 15 16 21 16 5 1 12 2 15 3 3 0 0
11 -6 24 -11 19 -10 20 3 10 12 -10 15 -10 15 2 0 8 -5 15 -10 15 -6 0 -8 2
-5 5 3 3 18 1 34 -5 16 -6 25 -8 21 -4 -3 4 0 12 9 18 8 6 16 21 17 33 1 17 4
19 14 11 17 -13 17 4 1 22 -7 8 -2 6 11 -5 22 -18 24 -18 18 -2 -4 9 -2 17 4
17 6 0 8 4 5 9 -3 4 3 16 13 26 19 16 19 16 16 -2 -1 -10 -8 -17 -13 -16 -6 2
-9 -4 -5 -13 4 -12 9 -10 23 12 10 15 17 34 15 43 -2 11 4 17 17 17 15 0 16
-3 6 -11 -7 -5 -14 -17 -16 -25 -1 -8 7 -4 18 10 11 14 20 30 20 37 0 6 9 9
23 6 22 -5 22 -5 2 11 -11 10 -15 15 -9 12 7 -3 14 1 17 8 4 10 17 13 39 11
32 -4 32 -4 9 9 -20 11 -21 14 -6 19 22 9 27 9 21 -1 -3 -5 1 -9 9 -9 11 0 12
4 4 14 -9 10 -5 15 16 23 14 5 23 15 20 20 -7 11 35 31 49 22 5 -3 6 0 2 6 -3
6 -16 9 -28 7 -11 -3 -17 -1 -14 3 4 4 13 7 19 7 7 1 11 6 10 11 -1 6 4 11 12
11 7 0 11 -6 8 -14 -3 -7 0 -13 7 -13 6 0 9 4 6 9 -3 5 1 14 9 21 8 7 12 16 9
21 -3 5 0 9 6 9 6 0 8 6 4 13 -6 9 -4 9 7 0 16 -16 29 -17 29 -2 0 5 -4 7 -10
4 -5 -3 -10 -1 -10 4 0 6 7 11 16 11 8 0 12 5 9 10 -4 6 -11 7 -17 4 -7 -4 -8
-2 -4 5 6 9 14 8 34 -5 l27 -17 -19 21 c-12 14 -14 22 -7 22 7 0 10 4 7 9 -4
5 3 7 14 4 12 -3 20 0 20 7 0 7 6 10 14 7 11 -4 13 1 9 24 -2 16 0 29 6 29 6
0 8 8 5 18 -5 14 -4 14 4 2 8 -10 7 -19 -1 -30 -6 -8 -7 -12 -3 -8 5 4 15 3
22 -3 8 -7 14 -6 20 2 4 7 3 9 -4 5 -6 -3 -13 -2 -17 3 -3 5 0 13 7 18 7 4 14
17 16 28 5 34 8 44 17 52 4 4 5 2 1 -4 -4 -8 -2 -13 6 -13 10 0 9 -3 -2 -11
-13 -9 -13 -10 0 -6 10 3 14 15 13 38 l-2 34 14 -30 c9 -18 13 -21 9 -8 -2 12
0 24 6 28 6 3 8 10 5 15 -3 4 6 7 19 6 17 -2 23 1 19 10 -3 8 -9 11 -14 8 -5
-3 -9 0 -9 5 0 6 7 11 17 11 9 0 13 3 10 7 -9 8 30 36 42 29 4 -3 16 0 25 7
16 12 16 13 -3 13 -11 0 -17 -5 -14 -11 4 -5 2 -7 -2 -2 -5 4 -9 17 -10 29 -2
18 -1 19 10 5 13 -17 26 -13 21 6 -2 7 -1 9 1 5 3 -5 9 -8 14 -8 6 0 8 3 6 8
-3 4 1 13 9 20 10 10 14 10 14 1 0 -7 3 -9 7 -5 5 4 1 13 -8 19 -14 10 -14 14
-3 25 8 7 14 8 14 2 0 -5 7 -10 16 -10 14 0 14 1 0 16 -9 8 -16 20 -16 25 0 6
7 3 15 -5 13 -12 20 -13 35 -4 17 11 17 13 2 24 -16 12 -11 28 9 30 5 1 14 2
20 3 5 0 8 5 4 11 -3 5 -13 7 -23 4 -14 -5 -14 -4 -3 4 10 7 21 7 33 1 12 -6
18 -6 18 1 0 5 -4 10 -10 10 -5 0 -10 5 -10 11 0 5 5 7 12 3 7 -5 9 -2 5 8 -7
19 11 38 34 38 10 0 21 5 25 11 4 8 -1 9 -17 5 -13 -3 -18 -3 -11 0 6 3 10 10
7 14 -3 5 4 7 16 5 17 -3 19 -2 9 10 -10 12 -9 16 4 21 9 3 14 9 12 13 -3 4
10 23 29 43 33 36 37 59 6 35 -14 -11 -14 -10 -2 5 7 10 16 16 20 14 3 -2 17
0 30 5 19 7 21 12 12 23 -8 9 -8 16 -2 20 5 4 14 -2 20 -11 6 -10 11 -13 11
-8 0 6 -7 20 -15 32 -13 18 -13 21 0 19 8 -1 18 -6 22 -11 4 -4 2 -5 -4 -1
-18 10 -16 1 3 -14 12 -11 15 -11 12 1 -2 8 3 13 10 12 15 -4 16 14 1 19 -9 3
-9 10 0 27 7 13 18 20 26 17 8 -3 17 0 21 6 4 6 3 8 -2 5 -6 -3 -16 -2 -24 4
-12 7 -10 9 7 9 17 0 21 5 19 29 -1 20 2 27 11 24 7 -3 10 -10 6 -17 -3 -6 -2
-7 3 -3 5 5 9 12 9 15 0 14 17 32 24 28 4 -3 8 1 8 9 0 8 -4 12 -8 10 -9 -6
-20 21 -12 29 4 3 12 1 20 -6 10 -8 12 -8 8 4 -4 9 3 19 17 26 l23 12 -22 -6
c-14 -3 -23 -1 -23 6 0 6 4 9 9 5 5 -3 12 -1 16 4 3 6 13 8 23 5 15 -5 15 -5
-1 6 -9 6 -22 8 -27 5 -6 -4 1 10 15 31 14 20 25 41 25 46 0 5 9 4 21 -2 20
-11 20 -11 3 14 -15 24 -15 26 0 20 10 -4 23 3 36 17 22 27 25 39 9 39 -5 0
-7 -4 -4 -10 4 -6 -1 -7 -11 -3 -11 4 -13 8 -6 11 7 2 10 7 7 12 -6 10 15 8
33 -3 6 -5 12 -4 12 1 0 5 -10 14 -22 21 l-23 12 22 -5 c13 -2 28 3 35 12 9
10 9 13 1 9 -6 -4 -14 -3 -18 3 -3 6 3 10 15 10 20 0 21 1 4 17 -16 17 -16 18
7 24 21 6 9 14 -14 10 -5 -1 -6 3 -2 9 3 6 11 7 17 4 8 -5 9 -1 4 11 -5 15 -4
16 8 6 13 -11 14 -9 7 17 -8 27 -7 30 13 28 17 -2 22 2 22 18 -1 12 -6 27 -10
35 -7 11 -5 13 9 7 14 -5 16 -4 7 7 -7 8 -10 16 -7 19 3 2 -2 5 -10 5 -8 0
-12 -4 -9 -8 2 -4 -1 -11 -7 -15 -8 -4 -9 -3 -5 4 4 7 1 12 -6 13 -7 0 -3 5
10 11 12 6 22 15 22 21 0 5 -7 4 -15 -3 -14 -12 -19 -6 -17 20 0 3 -10 7 -23
8 -19 1 -23 -2 -18 -15 6 -15 5 -16 -9 -3 -14 13 -14 16 1 27 13 9 14 14 4 24
-11 11 -15 11 -25 0 -11 -10 -10 -11 5 -6 9 4 17 3 17 -3 0 -9 -20 -9 -40 -2
-3 1 -9 2 -13 1 -5 -1 -6 3 -2 9 3 6 10 8 14 6 4 -3 8 1 8 9 0 18 -9 19 -25 3
-9 -9 -12 -9 -12 1 0 7 -5 9 -11 5 -8 -4 -8 -1 -1 12 7 14 6 25 -4 39 -8 10
-14 15 -14 11 0 -5 -7 -3 -15 4 -13 11 -13 15 -3 22 9 6 5 7 -9 3 -13 -3 -23
-2 -23 3 0 13 -49 12 -57 -1 -3 -6 -1 -7 5 -3 7 4 12 2 12 -4 0 -7 -7 -9 -16
-6 -9 3 -18 6 -21 6 -3 0 0 7 7 15 14 17 9 20 -7 4z m147 -75 c0 -1 -7 -4 -15
-8 -8 -3 -14 0 -12 7 1 7 -4 11 -11 9 -8 -1 -11 2 -7 7 7 12 -32 34 -45 26 -6
-3 -7 1 -4 9 5 13 14 10 50 -16 24 -17 44 -32 44 -34z m-200 -24 c0 -5 -5 -10
-11 -10 -5 0 -7 5 -4 10 3 6 8 10 11 10 2 0 4 -4 4 -10z m357 -186 c-3 -3 -12
-4 -19 -1 -8 3 -5 6 6 6 11 1 17 -2 13 -5z m-567 -18 c0 -3 -4 -8 -10 -11 -5
-3 -10 -1 -10 4 0 6 5 11 10 11 6 0 10 -2 10 -4z m449 -233 c-6 -7 -15 -10
-20 -7 -13 8 -3 21 15 21 12 0 13 -4 5 -14z m-829 -137 c0 -2 -7 -7 -16 -10
-8 -3 -12 -2 -9 4 6 10 25 14 25 6z m-54 -68 c5 -7 3 -8 -6 -3 -9 6 -12 4 -8
-7 4 -8 0 -15 -7 -15 -10 0 -11 5 -4 19 11 21 15 22 25 6z m748 -17 c3 -5 -1
-14 -8 -20 -12 -10 -14 -9 -11 6 2 10 4 19 4 21 2 5 10 2 15 -7z m-102 -143
c-8 -8 -9 -4 -5 13 4 13 8 18 11 10 2 -7 -1 -18 -6 -23z m-1078 -396 c3 -5 -1
-9 -9 -9 -8 0 -12 4 -9 9 3 4 7 8 9 8 2 0 6 -4 9 -8z m798 -16 c7 4 8 2 4 -5
-9 -13 -26 -5 -25 12 0 9 2 8 6 -1 2 -6 10 -9 15 -6z m-339 -379 c3 -7 -3 -18
-12 -24 -14 -9 -18 -8 -18 3 0 7 4 11 9 8 4 -3 8 2 8 10 0 19 6 21 13 3z
m-129 -148 c-3 -5 -10 -7 -15 -3 -5 3 -7 10 -3 15 3 5 10 7 15 3 5 -3 7 -10 3
-15z m-711 -44 c-3 -9 -8 -14 -10 -11 -3 3 -2 9 2 15 9 16 15 13 8 -4z m622
-35 c3 -6 -1 -7 -9 -4 -18 7 -21 14 -7 14 6 0 13 -4 16 -10z m-780 -160 c3 -5
2 -10 -4 -10 -5 0 -13 5 -16 10 -3 6 -2 10 4 10 5 0 13 -4 16 -10z m482 -97
c0 -18 -14 -33 -32 -33 -5 0 -3 5 5 10 8 5 16 14 16 20 3 26 11 28 11 3z
m-614 -77 c4 -10 1 -13 -8 -9 -8 3 -12 9 -9 14 7 12 11 11 17 -5z m527 -1 c5
3 11 1 14 -4 4 -5 -2 -8 -11 -7 -9 2 -18 8 -19 15 -1 6 0 7 3 1 2 -5 9 -8 13
-5z m-575 -75 c-3 -5 -11 -10 -16 -10 -6 0 -7 5 -4 10 3 6 11 10 16 10 6 0 7
-4 4 -10z m305 -144 c0 -3 -4 -8 -10 -11 -5 -3 -10 -1 -10 4 0 6 5 11 10 11 6
0 10 -2 10 -4z m-46 -35 c-4 -3 -9 0 -11 7 -3 6 -10 9 -15 6 -7 -4 -8 -2 -4 5
6 9 11 9 22 0 8 -6 12 -15 8 -18z m-424 -35 c0 -2 -7 -6 -15 -10 -8 -3 -15 -1
-15 4 0 6 7 10 15 10 8 0 15 -2 15 -4z m235 -55 c3 -5 0 -13 -6 -17 -7 -4 -9
-3 -5 4 3 5 0 13 -6 15 -9 4 -10 6 -1 6 6 1 14 -3 18 -8z m-334 -34 c-13 -13
-26 -3 -16 12 3 6 11 8 17 5 6 -4 6 -10 -1 -17z m189 -41 c0 -2 -7 -7 -16 -10
-8 -3 -12 -2 -9 4 6 10 25 14 25 6z"/>
<path d="M3010 2712 c6 -13 14 -21 18 -18 3 4 -2 14 -12 24 -18 16 -18 16 -6
-6z"/>
<path d="M4013 2717 c-2 -4 -10 -4 -16 0 -7 4 -6 0 2 -10 7 -9 19 -17 25 -17
6 0 4 5 -4 10 -8 5 -13 10 -10 11 3 0 15 2 27 3 33 4 39 14 8 12 -15 0 -29 -4
-32 -9z"/>
<path d="M2796 2683 c-6 -14 -5 -15 5 -6 7 7 10 15 7 18 -3 3 -9 -2 -12 -12z"/>
<path d="M3204 2622 c3 -5 0 -13 -6 -15 -9 -4 -10 -6 -1 -6 17 -1 25 16 12 25
-7 4 -9 3 -5 -4z"/>
<path d="M3255 2609 c-4 -6 -5 -12 -2 -15 2 -3 7 2 10 11 7 17 1 20 -8 4z"/>
<path d="M3346 2581 c-3 -5 1 -11 9 -15 8 -3 15 -1 15 4 0 13 -18 22 -24 11z"/>
<path d="M2427 2551 c-4 -15 -10 -20 -18 -15 -8 5 -10 3 -4 -6 6 -9 4 -12 -7
-8 -8 4 -15 0 -15 -7 0 -10 5 -11 17 -5 25 13 42 38 38 52 -3 7 -7 2 -11 -11z"/>
<path d="M3307 2559 c7 -7 15 -10 18 -7 3 3 -2 9 -12 12 -14 6 -15 5 -6 -5z"/>
<path d="M2315 2490 c3 -5 8 -10 11 -10 2 0 4 5 4 10 0 6 -5 10 -11 10 -5 0
-7 -4 -4 -10z"/>
<path d="M2920 2439 c0 -5 5 -7 10 -4 6 3 10 8 10 11 0 2 -4 4 -10 4 -5 0 -10
-5 -10 -11z"/>
<path d="M2210 2398 c0 -3 9 -6 20 -5 11 1 20 5 20 9 0 3 -9 6 -20 5 -11 -1
-20 -5 -20 -9z"/>
<path d="M2168 2353 c6 -3 10 -9 6 -14 -8 -14 2 -11 14 4 8 10 6 13 -11 14
-12 0 -16 -1 -9 -4z"/>
<path d="M2769 2158 c-1 -7 -1 -16 0 -20 0 -5 -3 -8 -9 -8 -5 0 -10 -5 -10
-10 0 -6 8 -5 20 2 14 9 16 14 7 20 -11 7 -2 12 16 9 5 -1 6 3 2 9 -9 14 -25
13 -26 -2z"/>
<path d="M1910 2086 c0 -2 8 -10 18 -17 15 -13 16 -12 3 4 -13 16 -21 21 -21
13z"/>
<path d="M1763 1875 c1 -11 -2 -26 -7 -33 -18 -29 2 -20 24 11 13 17 17 26 8
19 -14 -11 -17 -10 -22 5 -4 15 -4 15 -3 -2z"/>
<path d="M2610 1881 c0 -6 4 -13 10 -16 6 -3 7 1 4 9 -7 18 -14 21 -14 7z"/>
<path d="M2514 1753 c3 -6 -2 -16 -11 -22 -10 -5 -15 -13 -11 -16 4 -4 15 0
24 9 13 14 14 20 4 29 -10 9 -11 9 -6 0z"/>
<path d="M1649 1714 c-16 -20 7 -25 25 -5 14 15 14 18 1 18 -8 0 -20 -6 -26
-13z"/>
<path d="M2461 1686 c-9 -11 -9 -16 1 -22 7 -4 10 -4 6 1 -4 4 0 14 10 21 9 7
12 14 6 14 -6 0 -17 -6 -23 -14z"/>
<path d="M2450 1639 c0 -5 5 -7 10 -4 6 3 10 8 10 11 0 2 -4 4 -10 4 -5 0 -10
-5 -10 -11z"/>
<path d="M1560 1585 c5 -7 6 -16 2 -21 -4 -5 -3 -5 2 -1 15 12 15 34 0 34 -9
0 -11 -4 -4 -12z"/>
<path d="M2375 1571 c-3 -5 -1 -12 5 -16 5 -3 10 1 10 9 0 18 -6 21 -15 7z"/>
<path d="M2316 1479 c4 -8 30 -6 38 2 3 3 -5 5 -19 5 -13 0 -22 -3 -19 -7z"/>
<path d="M1457 1445 c3 -8 9 -12 14 -9 12 7 11 11 -5 17 -10 4 -13 1 -9 -8z"/>
<path d="M1350 1306 c0 -2 7 -7 16 -10 8 -3 12 -2 9 4 -6 10 -25 14 -25 6z"/>
<path d="M2151 1282 c-17 -31 -13 -40 5 -14 9 13 14 26 11 29 -3 2 -10 -4 -16
-15z"/>
<path d="M1310 1246 c0 -2 7 -7 16 -10 8 -3 12 -2 9 4 -6 10 -25 14 -25 6z"/>
<path d="M1050 860 c0 -5 5 -10 11 -10 5 0 7 -5 3 -12 -4 -7 -3 -8 5 -4 9 6 9
11 0 22 -14 17 -19 18 -19 4z"/>
<path d="M1650 758 c0 -4 4 -8 9 -8 6 0 12 4 15 8 3 5 -1 9 -9 9 -8 0 -15 -4
-15 -9z"/>
<path d="M907 679 c7 -7 15 -10 18 -7 3 3 -2 9 -12 12 -14 6 -15 5 -6 -5z"/>
<path d="M1470 579 c0 -5 5 -7 10 -4 6 3 10 8 10 11 0 2 -4 4 -10 4 -5 0 -10
-5 -10 -11z"/>
<path d="M1270 420 c0 -5 7 -7 15 -4 8 4 15 8 15 10 0 2 -7 4 -15 4 -8 0 -15
-4 -15 -10z"/>
<path d="M637 60 c-9 -11 -13 -20 -7 -20 5 0 14 9 20 20 6 11 9 20 8 20 -2 0
-11 -9 -21 -20z"/>
</g>
</svg>
