<?xml version="1.0" encoding="UTF-8" standalone="no"?>
<svg
   xmlns:dc="http://purl.org/dc/elements/1.1/"
   xmlns:cc="http://creativecommons.org/ns#"
   xmlns:rdf="http://www.w3.org/1999/02/22-rdf-syntax-ns#"
   xmlns:svg="http://www.w3.org/2000/svg"
   xmlns="http://www.w3.org/2000/svg"
   xmlns:sodipodi="http://sodipodi.sourceforge.net/DTD/sodipodi-0.dtd"
   xmlns:inkscape="http://www.inkscape.org/namespaces/inkscape"
   version="1.1"
   id="Layer_1"
   x="0px"
   y="0px"
   width="100px"
   height="100px"
   viewBox="0 0 100 100"
   style="enable-background:new 0 0 100 100;"
   xml:space="preserve"
   inkscape:version="0.91 r13725"
   sodipodi:docname="icon_marker.svg"><metadata
   id="metadata3347"><rdf:RDF><cc:Work
       rdf:about=""><dc:format>image/svg+xml</dc:format><dc:type
         rdf:resource="http://purl.org/dc/dcmitype/StillImage" /></cc:Work></rdf:RDF></metadata><defs
   id="defs3345" /><sodipodi:namedview
   pagecolor="#ffffff"
   bordercolor="#666666"
   borderopacity="1"
   objecttolerance="10"
   gridtolerance="10"
   guidetolerance="10"
   inkscape:pageopacity="0"
   inkscape:pageshadow="2"
   inkscape:window-width="1869"
   inkscape:window-height="972"
   id="namedview3343"
   showgrid="false"
   inkscape:zoom="7.97"
   inkscape:cx="30.865747"
   inkscape:cy="50"
   inkscape:window-x="-8"
   inkscape:window-y="-8"
   inkscape:window-maximized="1"
   inkscape:current-layer="Layer_1" />
	 <style
   id="style3337">
		path { fill: #CC6600; }
	</style>
	<path
   d="M 81.822613,33.224843 C 81.199589,16.197255 67.161269,2.5344128 49.983906,2.5344128 c -17.178403,0 -31.217765,13.6638822 -31.839748,30.6935502 -10.0942364,0.988102 -18.01152894,9.521138 -18.01152894,19.87228 0,18.513899 17.71509894,36.44118 18.46917594,37.195257 l 1.501913,1.501915 1.501915,-1.501915 c 0.274589,-0.274588 6.129349,-6.183434 11.191549,-14.656144 0.184099,0.280829 0.357796,0.559578 0.546056,0.841447 7.466926,11.200909 14.827762,18.604389 15.137714,18.91434 l 1.501913,1.501915 1.501915,-1.501915 c 0.309952,-0.309951 7.670787,-7.713431 15.137714,-18.91434 0.19554,-0.29331 0.376518,-0.5835 0.567897,-0.875771 5.0674,8.491432 10.937763,14.41692 11.212351,14.691509 l 1.501915,1.501913 1.501913,-1.501913 c 0.754078,-0.754078 18.469176,-18.681358 18.469176,-37.195259 0.0021,-10.367783 -7.938095,-18.9081 -18.053133,-19.876439 z m -1.373981,13.098064 c 3.250334,0.48677 5.753871,3.289858 5.753871,6.674365 0,3.725662 -3.030872,6.756534 -6.756534,6.756534 -1.148277,0 -2.229989,-0.29019 -3.177525,-0.796722 1.852429,-4.320604 3.250332,-8.536156 4.180188,-12.634177 z M 23.677526,58.907158 c -0.969379,0.537735 -2.082295,0.846648 -3.268016,0.846648 -3.725662,0 -6.756533,-3.030872 -6.756533,-6.756534 0,-3.420911 2.558662,-6.250001 5.861001,-6.689966 0.926736,4.087619 2.318398,8.29173 4.163548,12.599852 z M 20.104759,85.677426 C 15.908968,81.000066 4.3825052,66.889978 4.3825052,53.099203 c 0,-8.031705 6.0575818,-14.665506 13.8417408,-15.599522 0.131053,2.073974 0.389,4.18123 0.78008,6.322809 -4.457898,0.680231 -7.887129,4.529665 -7.887129,9.173742 0,5.123565 4.168747,9.291273 9.291273,9.291273 1.551839,0 3.014229,-0.386919 4.301881,-1.061948 1.566401,3.389707 3.40635,6.840782 5.527128,10.350102 -3.542603,6.393537 -7.88609,11.599271 -10.13272,14.101767 z m 29.879147,5.123566 C 44.018893,84.323207 22.363871,59.103739 22.363871,34.402243 c 0,-15.229242 12.389752,-27.6200342 27.620035,-27.6200342 15.229242,0 27.618994,12.3907922 27.618994,27.6200342 0,24.702536 -21.653982,49.922005 -27.618994,56.398749 z m 29.920751,-5.124606 c -2.251832,-2.508738 -6.606759,-7.727993 -10.153523,-14.13609 2.101016,-3.482278 3.927444,-6.906309 5.483443,-10.270014 1.26581,0.646946 2.693876,1.018264 4.210352,1.018264 5.123566,0 9.291273,-4.168749 9.291273,-9.291274 0,-4.606633 -3.374105,-8.431105 -7.778957,-9.1571 0.39316,-2.149901 0.652147,-4.265478 0.783199,-6.346731 7.806002,0.913214 13.885426,7.558456 13.885426,15.605762 0.002,13.765812 -11.525422,27.893582 -15.721213,32.577183 z"
   id="path3339"
   style="fill:#245882;fill-opacity:1"
   inkscape:connector-curvature="0" />
	<path
   d="m 49.805007,16.348071 c -8.408223,0 -15.249005,6.840782 -15.249005,15.249004 0,8.408224 6.840782,15.249006 15.249005,15.249006 8.408223,0 15.249005,-6.840782 15.249005,-15.249006 0,-8.408222 -6.840782,-15.249004 -15.249005,-15.249004 z m 0,26.338623 c -6.114787,0 -11.088578,-4.974831 -11.088578,-11.088578 0,-6.113747 4.973791,-11.089619 11.088578,-11.089619 6.114788,0 11.088578,4.974831 11.088578,11.088578 0,6.113749 -4.97379,11.089619 -11.088578,11.089619 z"
   id="path3341"
   style="fill:#245882;fill-opacity:1"
   inkscape:connector-curvature="0" />
<path
   style="color:#000000;clip-rule:nonzero;display:inline;overflow:visible;visibility:visible;opacity:1;isolation:auto;mix-blend-mode:normal;color-interpolation:sRGB;color-interpolation-filters:linearRGB;solid-color:#000000;solid-opacity:1;fill:#ffffff;fill-opacity:0;fill-rule:nonzero;stroke-width:1;stroke-linecap:butt;stroke-linejoin:miter;stroke-miterlimit:4;stroke-dasharray:none;stroke-dashoffset:0;stroke-opacity:1;color-rendering:auto;image-rendering:auto;shape-rendering:auto;text-rendering:auto;enable-background:accumulate"
   d="M 48.329691,93.197635 C 43.594103,88.193201 39.068896,82.585365 35.048512,76.739015 l -1.534975,-2.232127 -0.65364,1.040157 c -1.974985,3.142856 -4.425921,6.52453 -6.664799,9.19574 -1.169384,1.395196 -3.891164,4.389632 -4.492792,4.942859 l -0.326734,0.300448 -0.474487,-0.425919 C 20.137349,88.874609 17.445976,85.973991 16.367665,84.674295 9.7445222,76.691366 5.1972015,68.443944 3.2532566,60.888844 2.5030741,57.973276 2.259901,56.12861 2.2462246,53.249686 2.2360378,51.105324 2.2757774,50.535343 2.5194034,49.331523 3.5654427,44.162769 6.4184231,39.884587 10.756513,36.97958 c 1.325966,-0.887935 2.237191,-1.360918 3.740098,-1.94134 1.146432,-0.442752 3.193435,-0.970209 4.314881,-1.111827 l 0.643361,-0.08124 0.085,-1.02547 c 0.233456,-2.816466 0.902957,-5.973814 1.761157,-8.305584 0.665572,-1.808385 2.175515,-4.809277 3.186761,-6.333437 2.3354,-3.519937 5.268837,-6.453992 8.799111,-8.8009653 C 35.923755,7.6266856 39.939399,5.8758949 42.885822,5.1946479 47.238369,4.1882888 51.788078,4.1032986 56.060226,4.9485454 69.398269,7.5874842 79.538194,19.078779 80.539279,32.689974 l 0.08434,1.146686 0.641769,0.0836 c 2.917262,0.380037 5.849193,1.510919 8.42094,3.248064 1.523771,1.029264 3.920647,3.440451 4.940085,4.969579 1.382873,2.074273 2.309788,4.187732 2.864059,6.53034 0.427227,1.805664 0.539078,5.580455 0.234275,7.906407 -0.944743,7.209341 -4.336136,14.974566 -10.07221,23.062206 -2.24997,3.172367 -5.786656,7.398259 -8.000957,9.560128 l -0.835339,0.815558 -1.65404,-1.696627 c -3.315572,-3.400936 -6.9567,-8.094313 -9.804872,-12.638379 -0.400099,-0.638331 -0.747232,-1.160602 -0.771405,-1.160602 -0.02417,0 -0.50728,0.691656 -1.07357,1.537013 -3.928482,5.864436 -9.122289,12.329861 -13.923053,17.331889 l -1.551656,1.616706 -1.70795,-1.804912 z M 52.05113,86.979496 C 62.510496,75.01833 70.563806,61.564591 74.131197,50.092873 76.0369,43.964671 76.924863,37.807718 76.579233,33.118701 c -0.464726,-6.30475 -2.976651,-11.994238 -7.281868,-16.49337 -4.269484,-4.46179 -9.4198,-7.1156233 -15.621079,-8.0491627 -1.84199,-0.2772929 -5.420908,-0.2765215 -7.27729,0.00157 -5.727884,0.8580495 -10.659857,3.2558154 -14.727497,7.1600344 -2.32944,2.235853 -3.990613,4.506964 -5.45966,7.464303 -1.378342,2.774743 -2.204444,5.543823 -2.591612,8.687049 -0.198792,1.613878 -0.09014,6.67868 0.186366,8.688041 1.596091,11.598453 7.426112,24.356698 17.202824,37.646147 3.239214,4.403052 8.821754,11.07732 9.114197,10.896581 0.06685,-0.04132 0.934235,-1.004497 1.927516,-2.140396 z M 22.974294,82.385075 c 2.775488,-3.324213 4.93488,-6.338699 7.072363,-9.872936 l 1.098664,-1.816594 -0.263244,-0.441875 c -1.518123,-2.548286 -4.781852,-8.663853 -5.016721,-9.40032 -0.04498,-0.14103 -0.216075,-0.111455 -0.87099,0.150551 -1.237376,0.495029 -1.934179,0.624871 -3.375796,0.629045 -1.589668,0.0046 -2.543136,-0.218409 -4.011534,-0.93828 -0.85751,-0.420387 -1.284646,-0.741612 -2.209776,-1.661844 -0.940828,-0.935845 -1.239938,-1.332276 -1.665367,-2.207226 -0.721004,-1.482839 -0.944723,-2.433641 -0.944723,-4.015056 0,-1.575427 0.226906,-2.546465 0.923556,-3.952322 1.134896,-2.290249 3.320196,-4.047508 5.787507,-4.653892 l 0.828222,-0.203549 -0.109342,-0.582571 c -0.173765,-0.925827 -0.606072,-4.535761 -0.606072,-5.060953 0,-0.589715 -0.0747,-0.596762 -1.819322,-0.171633 -5.143352,1.25333 -9.1747243,4.952598 -10.8515546,9.957602 -1.4323801,4.275368 -0.8326397,10.030313 1.7152034,16.458622 1.7985052,4.537701 4.4949862,9.24379 7.9816562,13.930151 2.148012,2.887099 4.580051,5.801956 4.752165,5.695583 0.05312,-0.03283 0.766413,-0.861954 1.585105,-1.842503 z M 81.452755,81.166876 C 87.810528,73.290025 91.997172,65.28011 93.388548,58.331242 94.427443,53.14275 94.104413,49.532827 92.283591,45.98311 91.273284,44.013503 89.62578,42.072228 87.804266,40.705063 86.007509,39.356481 83.228637,38.196023 81.184423,37.940615 l -0.720182,-0.08998 0,0.634065 c 0,0.348736 -0.123146,1.555054 -0.273656,2.680706 -0.405382,3.031792 -0.42779,2.859611 0.399126,3.066911 0.998064,0.250206 2.578939,1.06667 3.467274,1.790722 3.198512,2.606996 4.108869,7.392075 2.097453,11.024768 -1.993999,3.601234 -6.267,5.415032 -10.128068,4.299149 -0.423035,-0.122261 -0.978699,-0.31427 -1.234807,-0.426685 l -0.46565,-0.204392 -1.38182,2.728636 c -1.146782,2.264512 -3.046149,5.731707 -3.77692,6.894565 -0.204138,0.324841 -0.197798,0.337916 1.53918,3.174095 1.802529,2.943216 4.272449,6.309243 6.924468,9.436722 l 1.139568,1.343874 0.606954,-0.653786 c 0.333824,-0.359582 1.26776,-1.472481 2.075412,-2.473108 z M 23.814304,58.95873 c 0.414052,-0.155137 0.803642,-0.328736 0.865755,-0.385776 0.06523,-0.0599 -0.211188,-0.914649 -0.654341,-2.023402 -1.001572,-2.505901 -2.019861,-5.570218 -2.704308,-8.138029 -0.627228,-2.353147 -0.493281,-2.232531 -1.930242,-1.738143 -2.512203,0.864324 -4.291027,3.381855 -4.295576,6.079431 -0.0031,1.846091 0.620464,3.339923 1.940226,4.647974 0.936218,0.927913 1.754669,1.411056 2.951635,1.742392 0.988055,0.273507 2.843238,0.18409 3.826851,-0.184447 z m 56.14535,0.180986 c 2.193512,-0.516988 4.050377,-2.333829 4.705717,-4.604282 0.253231,-0.877334 0.283396,-2.312696 0.06803,-3.237019 -0.399077,-1.712756 -1.799685,-3.516433 -3.306732,-4.258349 -1.013771,-0.499077 -2.088869,-0.792641 -2.152609,-0.587786 -0.02524,0.08111 -0.216528,0.82501 -0.425093,1.653115 -0.690543,2.741799 -2.040269,6.76986 -3.091153,9.225089 -0.240823,0.562648 -0.437859,1.073004 -0.437859,1.134125 0,0.06112 0.168265,0.198143 0.373921,0.304491 1.073919,0.555347 2.833408,0.708212 4.265783,0.370616 z"
   id="path3349"
   inkscape:connector-curvature="0" /><path
   style="color:#000000;clip-rule:nonzero;display:inline;overflow:visible;visibility:visible;opacity:1;isolation:auto;mix-blend-mode:normal;color-interpolation:sRGB;color-interpolation-filters:linearRGB;solid-color:#000000;solid-opacity:1;fill:#245882;fill-opacity:0;fill-rule:nonzero;stroke-width:1;stroke-linecap:butt;stroke-linejoin:miter;stroke-miterlimit:4;stroke-dasharray:none;stroke-dashoffset:0;stroke-opacity:1;color-rendering:auto;image-rendering:auto;shape-rendering:auto;text-rendering:auto;enable-background:accumulate"
   d="M 48.328292,93.176711 C 43.827664,88.534486 38.371476,81.735788 34.611866,76.08532 34.10679,75.326223 33.65243,74.659442 33.602176,74.603583 c -0.05025,-0.05586 -0.362718,0.339373 -0.694363,0.878294 -2.664235,4.329358 -6.604284,9.420658 -9.931992,12.834043 L 21.32178,90.012547 20.487759,89.196989 C 18.279468,87.037581 14.70464,82.768901 12.501988,79.66123 6.7471222,71.541821 3.3584571,63.787346 2.4132743,56.574655 2.1084712,54.248703 2.2203222,50.473912 2.6475495,48.668248 3.2018204,46.32564 4.1287355,44.212181 5.5116089,42.137908 6.5310462,40.60878 8.9279227,38.197593 10.451694,37.168329 13.0466,35.415542 15.934297,34.303188 18.889586,33.918016 l 0.65872,-0.08585 0,-0.667497 c 0,-0.367124 0.08679,-1.333814 0.192868,-2.148202 C 21.350721,18.65955 30.408415,8.4030598 42.433169,5.3211596 c 2.817598,-0.72214 4.148532,-0.8753424 7.604472,-0.8753424 3.45594,0 4.786875,0.1532024 7.604472,0.8753424 10.49771,2.6905246 18.8883,10.8876264 21.824637,21.3213564 0.496912,1.765686 0.881235,3.83321 0.992613,5.339918 0.142735,1.93091 0.105985,1.84741 0.855372,1.943486 6.243269,0.800421 11.804305,4.805346 14.702449,10.58835 0.617982,1.23313 1.386304,3.563049 1.660043,5.034036 0.306182,1.645335 0.299561,5.504614 -0.01302,7.590966 -1.216109,8.116929 -5.694457,17.294437 -12.734427,26.096749 -2.008863,2.511751 -3.902973,4.613451 -5.70408,6.329232 l -0.452433,0.431 -0.331387,-0.305529 c -1.499798,-1.382768 -5.488689,-6.038757 -7.463814,-8.712054 -1.226555,-1.660124 -3.469616,-4.985951 -4.004164,-5.937053 -0.162187,-0.288573 -0.326836,-0.524578 -0.365884,-0.524454 -0.03905,1.23e-4 -0.23962,0.267111 -0.445714,0.593305 -2.170689,3.435668 -7.290975,10.133744 -10.91219,14.274726 -1.783518,2.039515 -5.05009,5.457968 -5.21547,5.457968 -0.0499,0 -0.817756,-0.749902 -1.706347,-1.666451 z m 2.167694,-4.404381 c 0.196467,-0.233562 1.180034,-1.376912 2.185704,-2.540778 12.533926,-14.505555 20.999196,-30.344567 23.260307,-43.521389 0.526965,-3.070932 0.629512,-4.28397 0.631112,-7.465495 0.0013,-2.405107 -0.04846,-3.371018 -0.228278,-4.43885 C 74.870591,22.050959 69.527715,14.861693 61.643664,11.024222 57.837481,9.1716066 54.313839,8.3639295 50.037641,8.3639295 c -3.538541,0 -6.577065,0.5666857 -9.723965,1.8135225 -9.391697,3.721096 -15.818646,12.330734 -16.756722,22.447558 -0.430317,4.640808 0.386877,10.77257 2.26372,16.985698 3.432797,11.363976 11.383684,24.834757 21.661789,36.700459 2.462918,2.84335 2.481972,2.864637 2.574376,2.875866 0.04506,0.0055 0.242679,-0.181141 0.439147,-0.414703 z M 24.382937,80.664994 c 1.385276,-1.740342 3.185252,-4.227507 4.253338,-5.877167 0.890459,-1.375315 2.455318,-3.972818 2.455318,-4.075572 0,-0.03749 -0.625264,-1.158816 -1.389476,-2.491838 -0.764212,-1.333024 -1.958446,-3.567029 -2.653852,-4.964457 -0.695407,-1.397428 -1.305275,-2.540778 -1.355262,-2.540778 -0.04999,0 -0.394337,0.133105 -0.76522,0.295789 -1.075767,0.471873 -1.961029,0.636968 -3.371949,0.62884 -1.525212,-0.0088 -2.521268,-0.237491 -3.844663,-0.882775 -1.761605,-0.858953 -3.175241,-2.292102 -4.063554,-4.119646 -0.631795,-1.299804 -0.87057,-2.349744 -0.872864,-3.838148 -0.0062,-4.010692 2.694702,-7.519943 6.574191,-8.541825 0.476924,-0.125627 0.886427,-0.247703 0.910007,-0.271283 0.02358,-0.02358 -0.06733,-0.772014 -0.202033,-1.663185 -0.134697,-0.891174 -0.300105,-2.232555 -0.367573,-2.980849 -0.06747,-0.748293 -0.151954,-1.38982 -0.187748,-1.425614 -0.106099,-0.1061 -1.655488,0.201081 -2.756484,0.546498 -2.172936,0.681717 -4.119427,1.843917 -5.838127,3.485794 -3.5460786,3.387575 -5.1269891,7.76813 -4.6670736,12.932025 0.668581,7.506772 4.3685266,15.710951 11.0623826,24.529486 0.811925,1.069636 2.046652,2.609729 2.743839,3.422429 l 1.267611,1.477636 0.960333,-1.101225 c 0.528182,-0.605674 1.477168,-1.750534 2.108859,-2.544135 z m 56.16849,1.631116 c 2.503111,-2.96454 5.937843,-7.862535 7.698821,-10.97867 2.442925,-4.32287 4.207293,-8.697819 5.063574,-12.555709 0.633764,-2.85536 0.814975,-6.286514 0.444277,-8.412249 -0.95797,-5.493405 -4.882296,-10.057554 -10.157095,-11.813107 -1.08935,-0.362557 -2.897556,-0.751793 -2.999505,-0.645677 -0.02726,0.02837 -0.11572,0.700895 -0.196583,1.494496 -0.146525,1.438014 -0.443972,3.648283 -0.577364,4.290265 -0.06476,0.311674 -0.02811,0.348645 0.47144,0.475629 3.049462,0.775147 5.471554,2.931113 6.439144,5.731647 0.842234,2.437714 0.610096,5.021515 -0.65759,7.319273 -0.602994,1.092961 -2.226108,2.70439 -3.35625,3.332086 -2.33965,1.299474 -5.174479,1.491039 -7.595237,0.513252 -0.440388,-0.177881 -0.811218,-0.311272 -0.824067,-0.296424 -0.01285,0.01485 -0.540668,1.062444 -1.172933,2.327993 -1.147538,2.296923 -2.462764,4.726297 -3.567046,6.588744 l -0.584085,0.985099 0.901589,1.524311 c 2.174454,3.676339 5.206455,7.849828 8.250576,11.356752 l 0.693177,0.798562 0.359359,-0.422151 c 0.197646,-0.232183 0.812256,-0.958538 1.365798,-1.614122 z M 23.814304,58.974384 c 1.094641,-0.424929 1.068187,-0.306008 0.423739,-1.904862 -1.296362,-3.216233 -2.481685,-6.811109 -3.194677,-9.688885 -0.219284,-0.885074 -0.312727,-1.089676 -0.476163,-1.042599 -0.111835,0.03221 -0.457416,0.123566 -0.767956,0.203006 -1.549819,0.396463 -3.243916,1.781661 -3.985096,3.258459 -1.878928,3.743754 0.0196,8.109929 4.047831,9.309082 1.035611,0.308288 2.982761,0.242173 3.952322,-0.134201 z m 56.12256,0.173785 c 3.476713,-0.905568 5.60375,-4.373143 4.792676,-7.813197 -0.447501,-1.898007 -1.769953,-3.551406 -3.496287,-4.371238 -0.520042,-0.246967 -1.169977,-0.479136 -1.444297,-0.51593 -0.491767,-0.06596 -0.500483,-0.06008 -0.621399,0.418935 -0.93336,3.69758 -1.790768,6.389486 -2.980409,9.357246 -0.450755,1.124487 -0.85055,2.115406 -0.88843,2.202044 -0.07873,0.180069 0.569817,0.490266 1.526878,0.730296 0.869414,0.218049 2.256773,0.214412 3.111268,-0.0082 z"
   id="path4151"
   inkscape:connector-curvature="0" /><path
   style="color:#000000;clip-rule:nonzero;display:inline;overflow:visible;visibility:visible;opacity:1;isolation:auto;mix-blend-mode:normal;color-interpolation:sRGB;color-interpolation-filters:linearRGB;solid-color:#000000;solid-opacity:1;fill:#245882;fill-opacity:0;fill-rule:nonzero;stroke-width:1;stroke-linecap:butt;stroke-linejoin:miter;stroke-miterlimit:4;stroke-dasharray:none;stroke-dashoffset:0;stroke-opacity:1;color-rendering:auto;image-rendering:auto;shape-rendering:auto;text-rendering:auto;enable-background:accumulate"
   d="m 46.963614,46.540661 c -3.045951,-0.660735 -5.661044,-2.148116 -7.779172,-4.424546 -4.482244,-4.81723 -5.167699,-11.97915 -1.685353,-17.609253 0.804815,-1.30119 2.91512,-3.513055 4.121432,-4.31978 2.533319,-1.694164 5.203369,-2.508287 8.22634,-2.508287 3.129822,0 5.573088,0.739768 8.220893,2.489108 3.919541,2.589543 6.396422,7.250832 6.398492,12.041438 0.0029,6.651636 -4.374035,12.324054 -10.91543,14.14626 -1.020694,0.284329 -1.498465,0.33908 -3.324969,0.381029 -1.776158,0.04079 -2.321915,0.008 -3.262233,-0.195969 z m 5.100567,-3.823538 c 2.449498,-0.519176 4.83717,-2.026742 6.330453,-3.99702 0.696039,-0.918372 1.571358,-2.706377 1.885677,-3.851847 0.314461,-1.145993 0.314461,-4.123769 0,-5.269762 -0.313989,-1.144266 -1.189413,-2.933182 -1.883573,-3.849048 -1.267628,-1.672493 -3.11966,-2.986112 -5.191779,-3.682451 -1.076702,-0.361828 -1.424568,-0.417697 -2.916377,-0.468381 -1.971079,-0.06697 -3.256338,0.171472 -4.820984,0.894383 -6.661872,3.077974 -8.405393,11.707773 -3.42778,16.966278 1.601563,1.691941 3.487489,2.789572 5.551148,3.230834 1.125842,0.240734 3.400077,0.254468 4.473215,0.02701 z"
   id="path4153"
   inkscape:connector-curvature="0" /><path
   style="color:#000000;clip-rule:nonzero;display:inline;overflow:visible;visibility:visible;opacity:1;isolation:auto;mix-blend-mode:normal;color-interpolation:sRGB;color-interpolation-filters:linearRGB;solid-color:#000000;solid-opacity:1;fill:#245882;fill-opacity:0;fill-rule:nonzero;stroke-width:1;stroke-linecap:butt;stroke-linejoin:miter;stroke-miterlimit:4;stroke-dasharray:none;stroke-dashoffset:0;stroke-opacity:1;color-rendering:auto;image-rendering:auto;shape-rendering:auto;text-rendering:auto;enable-background:accumulate"
   d="m 46.963614,46.540661 c -3.045951,-0.660735 -5.661044,-2.148116 -7.779172,-4.424546 -4.482244,-4.81723 -5.167699,-11.97915 -1.685353,-17.609253 0.804815,-1.30119 2.91512,-3.513055 4.121432,-4.31978 2.533319,-1.694164 5.203369,-2.508287 8.22634,-2.508287 3.129822,0 5.573088,0.739768 8.220893,2.489108 3.919541,2.589543 6.396422,7.250832 6.398492,12.041438 0.0029,6.651636 -4.374035,12.324054 -10.91543,14.14626 -1.020694,0.284329 -1.498465,0.33908 -3.324969,0.381029 -1.776158,0.04079 -2.321915,0.008 -3.262233,-0.195969 z m 5.100567,-3.823538 c 2.449498,-0.519176 4.83717,-2.026742 6.330453,-3.99702 0.696039,-0.918372 1.571358,-2.706377 1.885677,-3.851847 0.314461,-1.145993 0.314461,-4.123769 0,-5.269762 -0.313989,-1.144266 -1.189413,-2.933182 -1.883573,-3.849048 -1.267628,-1.672493 -3.11966,-2.986112 -5.191779,-3.682451 -1.076702,-0.361828 -1.424568,-0.417697 -2.916377,-0.468381 -1.971079,-0.06697 -3.256338,0.171472 -4.820984,0.894383 -6.661872,3.077974 -8.405393,11.707773 -3.42778,16.966278 1.601563,1.691941 3.487489,2.789572 5.551148,3.230834 1.125842,0.240734 3.400077,0.254468 4.473215,0.02701 z"
   id="path4155"
   inkscape:connector-curvature="0" /><path
   style="color:#000000;clip-rule:nonzero;display:inline;overflow:visible;visibility:visible;opacity:1;isolation:auto;mix-blend-mode:normal;color-interpolation:sRGB;color-interpolation-filters:linearRGB;solid-color:#000000;solid-opacity:1;fill:#245882;fill-opacity:0;fill-rule:nonzero;stroke-width:1;stroke-linecap:butt;stroke-linejoin:miter;stroke-miterlimit:4;stroke-dasharray:none;stroke-dashoffset:0;stroke-opacity:1;color-rendering:auto;image-rendering:auto;shape-rendering:auto;text-rendering:auto;enable-background:accumulate"
   d="m 46.963614,46.540661 c -3.045951,-0.660735 -5.661044,-2.148116 -7.779172,-4.424546 -4.482244,-4.81723 -5.167699,-11.97915 -1.685353,-17.609253 0.804815,-1.30119 2.91512,-3.513055 4.121432,-4.31978 2.533319,-1.694164 5.203369,-2.508287 8.22634,-2.508287 3.129822,0 5.573088,0.739768 8.220893,2.489108 3.919541,2.589543 6.396422,7.250832 6.398492,12.041438 0.0029,6.651636 -4.374035,12.324054 -10.91543,14.14626 -1.020694,0.284329 -1.498465,0.33908 -3.324969,0.381029 -1.776158,0.04079 -2.321915,0.008 -3.262233,-0.195969 z m 5.100567,-3.823538 c 2.449498,-0.519176 4.83717,-2.026742 6.330453,-3.99702 0.696039,-0.918372 1.571358,-2.706377 1.885677,-3.851847 0.314461,-1.145993 0.314461,-4.123769 0,-5.269762 -0.313989,-1.144266 -1.189413,-2.933182 -1.883573,-3.849048 -1.267628,-1.672493 -3.11966,-2.986112 -5.191779,-3.682451 -1.076702,-0.361828 -1.424568,-0.417697 -2.916377,-0.468381 -1.971079,-0.06697 -3.256338,0.171472 -4.820984,0.894383 -6.661872,3.077974 -8.405393,11.707773 -3.42778,16.966278 1.601563,1.691941 3.487489,2.789572 5.551148,3.230834 1.125842,0.240734 3.400077,0.254468 4.473215,0.02701 z"
   id="path4157"
   inkscape:connector-curvature="0" /></svg>