<?xml version="1.0" encoding="UTF-8" standalone="no"?>
<svg
   xmlns:dc="http://purl.org/dc/elements/1.1/"
   xmlns:cc="http://creativecommons.org/ns#"
   xmlns:rdf="http://www.w3.org/1999/02/22-rdf-syntax-ns#"
   xmlns:svg="http://www.w3.org/2000/svg"
   xmlns="http://www.w3.org/2000/svg"
   xmlns:sodipodi="http://sodipodi.sourceforge.net/DTD/sodipodi-0.dtd"
   xmlns:inkscape="http://www.inkscape.org/namespaces/inkscape"
   enable-background="new 0 0 100 100"
   height="100px"
   id="Layer_1"
   version="1.1"
   viewBox="0 0 100 100"
   width="100px"
   xml:space="preserve"
   inkscape:version="0.91 r13725"
   sodipodi:docname="icon_calendar.svg"><metadata
     id="metadata3707"><rdf:RDF><cc:Work
         rdf:about=""><dc:format>image/svg+xml</dc:format><dc:type
           rdf:resource="http://purl.org/dc/dcmitype/StillImage" /><dc:title></dc:title></cc:Work></rdf:RDF></metadata><defs
     id="defs3705" /><sodipodi:namedview
     pagecolor="#ffffff"
     bordercolor="#666666"
     borderopacity="1"
     objecttolerance="10"
     gridtolerance="10"
     guidetolerance="10"
     inkscape:pageopacity="0"
     inkscape:pageshadow="2"
     inkscape:window-width="1869"
     inkscape:window-height="972"
     id="namedview3703"
     showgrid="true"
     inkscape:zoom="6.675088"
     inkscape:cx="60.084324"
     inkscape:cy="52.389038"
     inkscape:window-x="-8"
     inkscape:window-y="-8"
     inkscape:window-maximized="1"
     inkscape:current-layer="g3691"><inkscape:grid
       type="xygrid"
       id="grid4601" /></sodipodi:namedview><g
     id="g3681"><g
       id="g3683"><g
         id="g3685"><g
           id="g3687" /></g><g
         id="g3689" /></g></g><g
     id="g3691"
     style="fill:#245882;fill-opacity:1"><path
       d="m 9.7272619,98.984861 80.5454761,0 0,-67.12123 -80.5454761,0 0,67.12123 z m 2.6848501,-16.109096 12.08182,0 0,13.424247 -12.08182,0 0,-13.424247 z m 44.30001,-16.109094 0,13.424246 -13.424245,0 0,-13.424246 13.424245,0 z m -13.424245,-2.684849 0,-13.424247 13.424245,0 0,13.424247 -13.424245,0 z m -2.684849,16.109095 -13.424246,0 0,-13.424246 13.424246,0 0,13.424246 z m 0,2.684848 0,13.424247 -13.424246,0 0,-13.424247 13.424246,0 z m 2.684849,0 13.424245,0 0,13.424247 -13.424245,0 0,-13.424247 z m 16.109095,0 13.424246,0 0,13.424247 -13.424246,0 0,-13.424247 z m 0,-2.684848 0,-13.424246 13.424246,0 0,13.424246 -13.424246,0 z m 16.109096,-13.424246 12.081821,0 0,13.424246 -12.081821,0 0,-13.424246 z m 0,-2.684849 0,-13.424247 12.081821,0 0,13.424247 -12.081821,0 z m -2.68485,0 -13.424246,0 0,-13.424247 13.424246,0 0,13.424247 z m -13.424246,-16.109095 0,-13.424246 13.424246,0 0,13.424246 -13.424246,0 z m -2.68485,0 -13.424245,0 0,-13.424246 13.424245,0 0,13.424246 z m -16.109094,0 -13.424246,0 0,-13.424246 13.424246,0 0,13.424246 z m 0,2.684848 0,13.424247 -13.424246,0 0,-13.424247 13.424246,0 z m -16.109096,13.424247 -12.08182,0 0,-13.424247 12.08182,0 0,13.424247 z m 0,2.684849 0,13.424246 -12.08182,0 0,-13.424246 12.08182,0 z m 51.012136,29.533341 0,-13.424247 12.081821,0 0,13.424247 -12.081821,0 z m 12.081821,-48.327285 -12.081821,0 0,-13.424246 12.081821,0 0,13.424246 z m -63.093957,-13.424246 0,13.424246 -12.08182,0 0,-13.424246 12.08182,0 z"
       id="path3693"
       style="fill:#245882;fill-opacity:1"
       inkscape:connector-curvature="0" /><path
       d="m 79.533341,11.727263 -2.684849,0 0,-8.7257606 c 0,-1.4820368 -1.202812,-2.68484917 -2.68485,-2.68484917 -1.482036,0 -2.684848,1.20281237 -2.684848,2.68484917 l 0,8.7257606 -42.957587,0 0,-8.7257606 c 0,-1.4820368 -1.202813,-2.68484917 -2.684849,-2.68484917 -1.482037,0 -2.68485,1.20281237 -2.68485,2.68484917 l 0,8.7257606 -2.68485,0 c -5.930831,0 -10.7393961,4.137352 -10.7393961,10.068184 l 0,6.04091 80.5454761,0 0,-6.04091 c 0,-5.930832 -4.808565,-10.068184 -10.739397,-10.068184 z M 25.833672,24.480295 c -2.966758,0 -5.369698,-2.40294 -5.369698,-5.369698 0,-1.985445 1.088707,-3.697036 2.687534,-4.627338 l 0,4.627338 c 0,1.482038 1.202813,2.68485 2.68485,2.68485 1.482036,0 2.684849,-1.202812 2.684849,-2.68485 l 0,-4.62331 c 1.596143,0.9303 2.682163,2.641892 2.682163,4.62331 0,2.966758 -2.402939,5.369698 -5.369698,5.369698 z m 48.327286,0 c -2.966758,0 -5.369698,-2.40294 -5.369698,-5.369698 0,-1.985445 1.088706,-3.697036 2.687534,-4.627338 l 0,4.627338 c 0,1.482038 1.202812,2.68485 2.684848,2.68485 1.482038,0 2.68485,-1.202812 2.68485,-2.68485 l 0,-4.62331 c 1.596143,0.9303 2.682164,2.641892 2.682164,4.62331 0,2.966758 -2.40294,5.369698 -5.369698,5.369698 z"
       id="path3695"
       style="fill:#245882;fill-opacity:1"
       inkscape:connector-curvature="0" /><rect
       height="8.0545473"
       width="8.0545473"
       x="29.863628"
       y="37.23333"
       id="rect3697"
       style="fill:#245882;fill-opacity:1" /><rect
       height="8.0545473"
       width="8.0545473"
       x="62.081818"
       y="69.451523"
       id="rect3699"
       style="fill:#245882;fill-opacity:1" /><rect
       height="8.0545473"
       width="8.0545473"
       x="45.972725"
       y="69.451523"
       id="rect3701"
       style="fill:#245882;fill-opacity:1" /></g></svg>