<?xml version="1.0" encoding="UTF-8" standalone="no"?>
<!-- Created with Inkscape (http://www.inkscape.org/) -->

<svg
   xmlns:dc="http://purl.org/dc/elements/1.1/"
   xmlns:cc="http://creativecommons.org/ns#"
   xmlns:rdf="http://www.w3.org/1999/02/22-rdf-syntax-ns#"
   xmlns:svg="http://www.w3.org/2000/svg"
   xmlns="http://www.w3.org/2000/svg"
   xmlns:sodipodi="http://sodipodi.sourceforge.net/DTD/sodipodi-0.dtd"
   xmlns:inkscape="http://www.inkscape.org/namespaces/inkscape"
   width="103.3565mm"
   height="83.657455mm"
   viewBox="0 0 366.22381 296.42405"
   id="svg3646"
   version="1.1"
   inkscape:version="0.91 r13725"
   sodipodi:docname="sotonUAV-white+blue.svg">
  <defs
     id="defs3648" />
  <sodipodi:namedview
     id="base"
     pagecolor="#ffffff"
     bordercolor="#666666"
     borderopacity="1.0"
     inkscape:pageopacity="0"
     inkscape:pageshadow="2"
     inkscape:zoom="0.49497475"
     inkscape:cx="273.33441"
     inkscape:cy="612.32518"
     inkscape:document-units="px"
     inkscape:current-layer="layer1"
     showgrid="false"
     inkscape:window-width="1869"
     inkscape:window-height="972"
     inkscape:window-x="-8"
     inkscape:window-y="-8"
     inkscape:window-maximized="1"
     fit-margin-top="0"
     fit-margin-left="0"
     fit-margin-right="0"
     fit-margin-bottom="0" />
  <metadata
     id="metadata3651">
    <rdf:RDF>
      <cc:Work
         rdf:about="">
        <dc:format>image/svg+xml</dc:format>
        <dc:type
           rdf:resource="http://purl.org/dc/dcmitype/StillImage" />
        <dc:title></dc:title>
      </cc:Work>
    </rdf:RDF>
  </metadata>
  <g
     inkscape:label="Layer 1"
     inkscape:groupmode="layer"
     id="layer1"
     transform="translate(-14.030443,-9.86447)">
    <path
       d="m 285.29554,233.39245 0,-4.86375 c 0,-3.93125 1.4738,-7.29375 4.3388,-10.15875 2.87,-2.78375 6.1462,-4.17625 9.9925,-4.17625 3.85,0 7.2125,1.3925 10.0775,4.17625 2.865,2.865 4.2575,6.2275 4.2575,10.15875 l 0,4.86375 -28.6663,0 z m 29.1588,-19.28 c -3.9313,-4.0175 -8.845,-6.065 -14.8275,-6.065 -5.9788,0 -10.8925,2.0475 -14.7425,6.065 -3.9313,4.0125 -5.8975,9.08875 -5.8975,15.1525 l 0,26.62 6.3087,0 0,-16.89125 28.6663,0 0,16.89125 6.3087,0 0,-26.62 c 0,-6.06375 -1.9662,-11.14 -5.8162,-15.1525"
       style="fill:#245882;fill-opacity:1;fill-rule:nonzero;stroke:none"
       id="path3360"
       inkscape:connector-curvature="0" />
    <path
       d="m 268.08444,235.80945 c 0,6.0625 -1.9663,11.14375 -5.8988,15.1575 -3.8512,4.01625 -8.7662,6.065 -14.7487,6.065 -5.9825,0 -10.9,-2.04875 -14.8313,-6.065 -3.8512,-4.01375 -5.8175,-9.095 -5.8175,-15.1575 l 0,-26.63 6.31,0 0,27.3675 c 0,3.93125 1.3913,7.2925 4.26,10.16 2.8663,2.78625 6.2275,4.18 10.0788,4.18 3.8512,0 7.1287,-1.39375 9.9962,-4.18 2.8688,-2.8675 4.3425,-6.22875 4.3425,-10.16 l 0,-27.3675 6.3088,0 0,26.63 z"
       style="fill:#245882;fill-opacity:1;fill-rule:nonzero;stroke:none"
       id="path3364"
       inkscape:connector-curvature="0" />
    <path
       d="m 348.06644,255.88458 -6.4738,0 -19.1737,-46.705 6.5537,0 15.8975,38.51125 15.8138,-38.51125 6.8825,0 -19.5,46.705 z"
       style="fill:#245882;fill-opacity:1;fill-rule:nonzero;stroke:none"
       id="path3368"
       inkscape:connector-curvature="0" />
    <path
       d="m 250.96684,167.07508 c -4.66,0 -8.4375,-3.7775 -8.4375,-8.4375 0,-4.66 3.7775,-8.4375 8.4375,-8.4375 4.66,0 8.4375,3.7775 8.4375,8.4375 0,4.66 -3.7775,8.4375 -8.4375,8.4375 m 12.2825,-20.6875 c -6.7813,-6.82625 -17.8138,-6.8625 -24.64,-0.0813 -6.8275,6.7825 -6.8638,17.81375 -0.081,24.64125 6.7812,6.82625 17.8137,6.8625 24.64,0.0812 6.8262,-6.7825 6.8637,-17.815 0.081,-24.64125"
       style="fill:#245882;fill-opacity:1;fill-rule:nonzero;stroke:none"
       id="path3372"
       inkscape:connector-curvature="0" />
    <path
       d="m 95.363443,158.8502 c 0.028,17.28875 12.878697,30.5625 29.637497,30.6125 16.4262,0.0488 29.6375,-13.665 29.6112,-30.7375 -0.025,-17.14375 -13.025,-30.4525 -29.7112,-30.41875 -16.885,0.035 -29.564997,13.1475 -29.537497,30.54375 m 29.693697,39.33875 c -21.9,0.001 -38.952497,-17.29 -38.893697,-39.44 0.055,-21.22375 17.754997,-39.57125 38.208697,-39.60625 21.3575,-0.0362 39.17,17.89 39.2825,39.535 0.1113,21.4325 -17.5487,39.51125 -38.5975,39.51125"
       style="fill:#ffffff;fill-opacity:1;fill-rule:nonzero;stroke:none"
       id="path3376"
       inkscape:connector-curvature="0" />
    <path
       d="m 251.13304,128.30695 c -16.98,-0.0138 -29.805,13.0125 -29.8225,30.28875 -0.016,17.5725 12.86,30.87125 29.8875,30.86625 16.2425,-0.004 29.2963,-13.5525 29.3613,-30.4725 0.066,-17.32375 -12.7325,-30.66875 -29.4263,-30.6825 m -0.705,69.8825 c -21.3437,-0.19625 -38.8675,-18.2575 -38.39,-39.56625 0.4813,-21.415 18.185,-39.59625 38.4413,-39.47875 21.2975,0.12375 39.25,18.2625 39.2687,39.6775 0.019,21.4625 -18.0587,39.5625 -39.32,39.3675"
       style="fill:#ffffff;fill-opacity:1;fill-rule:nonzero;stroke:none"
       id="path3380"
       inkscape:connector-curvature="0" />
    <path
       d="m 367.56694,196.31333 -9.185,0 c 0,-14.70125 -0.053,-29.1175 0.023,-43.53125 0.039,-7.47375 -2.8438,-13.6 -8.3113,-18.4825 -7.4875,-6.68625 -16.2375,-7.97625 -25.2587,-4.165 -9.42,3.97875 -14.6388,11.555 -14.8338,21.91625 -0.24,12.8525 -0.064,25.7125 -0.066,38.56875 -10e-4,1.7375 -10e-4,3.47625 -10e-4,5.59875 -2.955,0 -6.0525,0.095 -8.74,0.095 0,0 -0.135,-0.745 -0.1337,-1.01125 0.05,-15.545 -0.51,-31.125 0.3662,-46.625 0.9513,-16.8275 15.7563,-29.35 32.945,-29.25 17.415,0.1025 31.9375,12.99 32.745,30.03875 0.6963,14.7275 0.3525,29.505 0.45,44.26125 l 10e-4,2.58625 z"
       style="fill:#ffffff;fill-opacity:1;fill-rule:nonzero;stroke:none"
       id="path3384"
       inkscape:connector-curvature="0" />
    <path
       d="m 184.16744,120.87682 17.5125,0 0,8.28625 -17.375,0 0,6.02 c 0,12.06125 0,24.12375 0,36.185 0,12.83875 3.3712,16.9975 15.7612,19.50375 0.6038,0.12125 1.175,0.39625 1.8713,0.6375 l 0,5.72875 c -12.215,3.475 -25.5088,-5.5 -26.3538,-18.22875 -0.5987,-9.00875 -0.4362,-18.0725 -0.4675,-27.11125 -0.06,-17.29875 -0.017,-34.59875 -0.017,-51.8975 l 0,-5.397504 9.0688,0 0,26.273754 z"
       style="fill:#ffffff;fill-opacity:1;fill-rule:nonzero;stroke:none"
       id="path3388"
       inkscape:connector-curvature="0" />
    <path
       d="m 214.99454,189.08133 c -0.1362,-0.0625 -0.2675,-0.09 -0.3962,-0.0187 -0.021,0.04 -0.051,0.0712 -0.089,0.095 l 0,0 c -0.092,0.11 -0.1863,0.21875 -0.2788,0.3275 -0.095,0.1025 -0.185,0.21 -0.2862,0.30625 -2.3725,2.24 -4.5538,4.66625 -6.8163,7.01375 -0.7462,0.7675 -1.5462,1.49375 -2.365,2.165 -1.7987,1.47625 -3.6912,2.845 -5.5937,4.19 -4.4713,3.15875 -8.31,6.97375 -11.7588,11.19875 -9.075,11.1175 -17.95,22.38375 -25.94,34.3225 -5.8062,8.675 -11.5712,17.3775 -17.655,25.8625 -3.1912,4.45125 -6.4775,8.8175 -9.8225,13.1675 -0.69,0.895 -1.2862,1.7375 -2.0312,2.71625 -0.6425,0.7825 -1.285,1.565 -1.9275,2.3475 -0.3613,0.4225 -0.7288,0.83875 -1.0825,1.26625 -1.9138,2.31125 -3.8313,4.62 -5.9925,6.7075 -1.02,0.985 -2.0663,1.94125 -3.105,2.90625 -0.1713,0.15875 -0.4263,0.3075 -0.1675,0.55125 2.8412,2.69125 4.1837,2.24625 6.92,1.55625 2.0387,-0.51375 4.2937,-1.66125 6.3912,-2.58375 3.915,-1.72 7.5913,-3.86625 11.1513,-6.2025 2.5762,-1.69 5.075,-3.50125 7.5312,-5.3725 3.7363,-2.84625 7.3888,-5.795 10.9413,-8.86375 2.7412,-2.36875 5.4475,-4.775 8.13,-7.21 3.965,-3.59875 7.8162,-7.31875 11.4887,-11.2175 3.3963,-3.60625 6.6888,-7.30875 9.8738,-11.1075 3.1425,-3.74625 6.2625,-7.50875 9.2025,-11.41625 4.43,-5.88625 8.5237,-12.00875 12.6075,-18.13625 0,0 7.7137,-12.50625 9.5487,-16.9375 0.9925,-2.39875 1.4725,-4.0225 1.4725,-4.0225 0.345,-0.96375 1.0863,-2.845 1.0863,-2.845 0,0 0.1612,-0.41125 0.2987,-0.815 -4.29,-2.6925 -8.115,-6.06625 -11.3362,-9.95125"
       style="fill:#245882;fill-opacity:1;fill-rule:nonzero;stroke:none"
       id="path3392"
       inkscape:connector-curvature="0" />
    <path
       d="m 380.14394,11.945696 c -2.8413,-2.6900003 -4.1838,-2.2450003 -6.92,-1.55625 -2.0388,0.515 -4.2938,1.6625 -6.3913,2.58375 -3.915,1.72 -7.5912,3.86625 -11.1512,6.20375 -2.5763,1.69 -5.075,3.50125 -7.5313,5.37125 -3.7375,2.8475 -7.3887,5.795 -10.9412,8.865 -2.7413,2.3675 -5.4488,4.775 -8.13,7.20875 -3.965,3.6 -7.8175,7.32 -11.4888,11.2175 -3.3975,3.60625 -6.6887,7.31 -9.8737,11.1075 -3.1425,3.74625 -6.2625,7.51 -9.2025,11.41625 -4.4313,5.88625 -8.5238,12.00875 -12.6075,18.1375 0,0 -7.7138,12.506254 -9.5488,16.937504 -0.9925,2.3975 -1.4725,4.02125 -1.4725,4.02125 -0.345,0.96375 -1.0862,2.84625 -1.0862,2.84625 0,0 -0.3188,0.81125 -0.4438,1.2725 4.385,2.55 8.3575,5.77375 11.7513,9.535 0.043,-0.006 0.084,0 0.125,-0.0225 0.023,-0.04 0.053,-0.0725 0.09,-0.0962 l 0,0 c 0.092,-0.10875 0.1862,-0.2175 0.2787,-0.3275 0.095,-0.10125 0.185,-0.21 0.2863,-0.305 2.3725,-2.24125 4.5537,-4.66625 6.8162,-7.015 0.7463,-0.76625 1.5463,-1.49375 2.3638,-2.16375 1.8,-1.47625 3.6925,-2.84625 5.595,-4.19 4.4712,-3.15875 8.31,-6.975 11.7587,-11.2 9.075,-11.116254 17.95,-22.383754 25.94,-34.322504 5.8063,-8.67375 11.5713,-17.3775 17.655,-25.8625 3.1913,-4.45125 6.4763,-8.81625 9.8225,-13.16625 0.69,-0.89625 1.2863,-1.7375 2.0313,-2.7175 0.6425,-0.78125 1.285,-1.56375 1.9275,-2.34625 0.3612,-0.4225 0.7287,-0.84 1.0825,-1.2675 1.9137,-2.31 3.8312,-4.62 5.9925,-6.7075 1.02,-0.98375 2.0662,-1.94 3.105,-2.905 0.1712,-0.16 0.4262,-0.3075 0.1675,-0.5525"
       style="fill:#245882;fill-opacity:1;fill-rule:nonzero;stroke:none"
       id="path3396"
       inkscape:connector-curvature="0" />
    <path
       d="m 14.031443,177.13632 0.036,0.665 c 1.4625,13.325 16.2313,20.55875 29.3838,20.55875 14.925,0 30.3637,-8.70375 30.3637,-23.265 0,-1.45625 -0.2112,-3.2925 -0.58,-5.0375 -2.9512,-11.6075 -15.9962,-14.6775 -28.3637,-16.14375 -8.9188,-0.78875 -20.07,-1.77375 -20.79,-11.595 -0.2938,-3.3375 0.5412,-6.32125 2.4162,-8.60625 3.3225,-4.05375 9.5575,-6.56125 16.6813,-6.705 l 0.43,-0.004 c 7.4937,0 15.8012,3.19875 18.2237,10.3025 l 9.37,-0.355 c -2.96,-13.5925 -16.4187,-18.47 -27.3825,-18.47 -10.1662,0 -19.6762,3.93 -24.8162,10.25625 -3.2875,4.05625 -4.7863,8.99375 -4.3363,14.285 l 0.011,-0.002 c 1.2462,15.7025 15.6425,18.385 29.0362,19.66875 8.2,0.7775 18.405,1.745 20.1738,9.15625 0.2712,1.15375 0.4087,2.20625 0.4087,3.13375 0,9.22375 -10.5375,14.73625 -20.7237,14.73625 -8.835,0 -18.7088,-4.3525 -19.9238,-12.425 l -0.059,0.001 -0.024,-0.33375 -9.5362,0.17875 z"
       style="fill:#ffffff;fill-opacity:1;fill-rule:nonzero;stroke:none"
       id="path3400"
       inkscape:connector-curvature="0" />
  </g>
</svg>
