<?xml version="1.0" encoding="UTF-8" standalone="no"?>
<!-- Created with Inkscape (http://www.inkscape.org/) -->

<svg
   xmlns:dc="http://purl.org/dc/elements/1.1/"
   xmlns:cc="http://creativecommons.org/ns#"
   xmlns:rdf="http://www.w3.org/1999/02/22-rdf-syntax-ns#"
   xmlns:svg="http://www.w3.org/2000/svg"
   xmlns="http://www.w3.org/2000/svg"
   xmlns:sodipodi="http://sodipodi.sourceforge.net/DTD/sodipodi-0.dtd"
   xmlns:inkscape="http://www.inkscape.org/namespaces/inkscape"
   width="103.3565mm"
   height="83.657455mm"
   viewBox="0 0 366.22381 296.42405"
   id="svg3646"
   version="1.1"
   inkscape:version="0.91 r13725"
   sodipodi:docname="sotonUAV-white.svg">
  <defs
     id="defs3648" />
  <sodipodi:namedview
     id="base"
     pagecolor="#ffffff"
     bordercolor="#666666"
     borderopacity="1.0"
     inkscape:pageopacity="0"
     inkscape:pageshadow="2"
     inkscape:zoom="2.8"
     inkscape:cx="202.92257"
     inkscape:cy="247.5915"
     inkscape:document-units="px"
     inkscape:current-layer="layer1"
     showgrid="false"
     inkscape:window-width="1869"
     inkscape:window-height="972"
     inkscape:window-x="-8"
     inkscape:window-y="-8"
     inkscape:window-maximized="1"
     fit-margin-top="0"
     fit-margin-left="0"
     fit-margin-right="0"
     fit-margin-bottom="0" />
  <metadata
     id="metadata3651">
    <rdf:RDF>
      <cc:Work
         rdf:about="">
        <dc:format>image/svg+xml</dc:format>
        <dc:type
           rdf:resource="http://purl.org/dc/dcmitype/StillImage" />
        <dc:title></dc:title>
      </cc:Work>
    </rdf:RDF>
  </metadata>
  <g
     inkscape:label="Layer 1"
     inkscape:groupmode="layer"
     id="layer1"
     transform="translate(-14.030443,-9.86447)">
    <g
       id="g3402"
       transform="matrix(1.25,0,0,-1.25,285.56166,233.28539)">
      <path
         d="m 0,0 0,3.891 c 0,3.145 1.179,5.835 3.471,8.127 2.296,2.227 4.917,3.341 7.994,3.341 3.08,0 5.77,-1.114 8.062,-3.341 2.292,-2.292 3.406,-4.982 3.406,-8.127 L 22.933,0 0,0 Z m 23.327,15.424 c -3.145,3.214 -7.076,4.852 -11.862,4.852 -4.783,0 -8.714,-1.638 -11.794,-4.852 -3.145,-3.21 -4.718,-7.271 -4.718,-12.123 l 0,-21.295 5.047,0 0,13.513 22.933,0 0,-13.513 5.047,0 0,21.295 c 0,4.852 -1.573,8.913 -4.653,12.123"
         style="fill:#ffffff;fill-opacity:1;fill-rule:nonzero;stroke:none"
         id="path3404"
         inkscape:connector-curvature="0" />
    </g>
    <g
       id="g3406"
       transform="matrix(1.25,0,0,-1.25,268.35054,235.70226)">
      <path
         d="m 0,0 c 0,-4.85 -1.573,-8.915 -4.719,-12.126 -3.081,-3.213 -7.013,-4.852 -11.799,-4.852 -4.786,0 -8.72,1.639 -11.865,4.852 -3.081,3.211 -4.654,7.276 -4.654,12.126 l 0,21.304 5.048,0 0,-21.894 c 0,-3.145 1.113,-5.834 3.408,-8.128 2.293,-2.229 4.982,-3.344 8.063,-3.344 3.081,0 5.703,1.115 7.997,3.344 2.295,2.294 3.474,4.983 3.474,8.128 l 0,21.894 5.047,0 L 0,0 Z"
         style="fill:#ffffff;fill-opacity:1;fill-rule:nonzero;stroke:none"
         id="path3408"
         inkscape:connector-curvature="0" />
    </g>
    <g
       id="g3410"
       transform="matrix(1.25,0,0,-1.25,348.33266,255.77752)">
      <path
         d="m 0,0 -5.179,0 -15.339,37.364 5.243,0 12.718,-30.809 12.651,30.809 5.506,0 L 0,0 Z"
         style="fill:#ffffff;fill-opacity:1;fill-rule:nonzero;stroke:none"
         id="path3412"
         inkscape:connector-curvature="0" />
    </g>
    <g
       id="g3414"
       transform="matrix(1.25,0,0,-1.25,251.23291,166.96801)">
      <path
         d="m 0,0 c -3.728,0 -6.75,3.022 -6.75,6.75 0,3.728 3.022,6.75 6.75,6.75 3.728,0 6.75,-3.022 6.75,-6.75 C 6.75,3.022 3.728,0 0,0 M 9.826,16.55 C 4.401,22.011 -4.425,22.04 -9.886,16.615 -15.348,11.189 -15.377,2.364 -9.951,-3.098 -4.526,-8.559 4.3,-8.588 9.761,-3.163 15.222,2.263 15.252,11.088 9.826,16.55"
         style="fill:#ffffff;fill-opacity:1;fill-rule:nonzero;stroke:none"
         id="path3416"
         inkscape:connector-curvature="0" />
    </g>
    <g
       id="g3418"
       transform="matrix(1.25,0,0,-1.25,95.629543,158.74301)">
      <path
         d="M 0,0 C 0.022,-13.831 10.303,-24.45 23.71,-24.49 36.851,-24.529 47.42,-13.558 47.399,0.1 47.379,13.815 36.979,24.462 23.63,24.435 10.122,24.407 -0.022,13.917 0,0 M 23.755,-31.471 C 6.235,-31.472 -7.407,-17.639 -7.36,0.081 -7.316,17.06 6.844,31.738 23.207,31.766 40.293,31.795 54.543,17.454 54.633,0.138 54.722,-17.008 40.594,-31.471 23.755,-31.471"
         style="fill:#ffffff;fill-opacity:1;fill-rule:nonzero;stroke:none"
         id="path3420"
         inkscape:connector-curvature="0" />
    </g>
    <g
       id="g3422"
       transform="matrix(1.25,0,0,-1.25,251.39928,128.19989)">
      <path
         d="m 0,0 c -13.584,0.011 -23.844,-10.41 -23.858,-24.231 -0.013,-14.058 10.288,-24.697 23.91,-24.693 12.994,0.003 23.437,10.842 23.489,24.378 C 23.594,-10.687 13.355,-0.011 0,0 m -0.564,-55.906 c -17.075,0.157 -31.094,14.606 -30.712,31.653 0.385,17.132 14.548,31.677 30.753,31.583 17.038,-0.099 31.4,-14.61 31.415,-31.742 0.015,-17.17 -14.447,-31.65 -31.456,-31.494"
         style="fill:#ffffff;fill-opacity:1;fill-rule:nonzero;stroke:none"
         id="path3424"
         inkscape:connector-curvature="0" />
    </g>
    <g
       id="g3426"
       transform="matrix(1.25,0,0,-1.25,367.83304,196.20626)">
      <path
         d="m 0,0 -7.348,0 c 0,11.761 -0.042,23.294 0.018,34.825 0.031,5.979 -2.275,10.88 -6.649,14.786 -5.99,5.349 -12.99,6.381 -20.207,3.332 C -41.722,49.76 -45.897,43.699 -46.053,35.41 -46.245,25.128 -46.104,14.84 -46.106,4.555 -46.107,3.165 -46.107,1.774 -46.107,0.076 -48.471,0.076 -50.949,0 -53.099,0 c 0,0 -0.108,0.596 -0.107,0.809 0.04,12.436 -0.408,24.9 0.293,37.3 0.761,13.462 12.605,23.48 26.356,23.4 13.932,-0.082 25.55,-10.392 26.196,-24.031 0.557,-11.782 0.282,-23.604 0.36,-35.409 L 0,0 Z"
         style="fill:#ffffff;fill-opacity:1;fill-rule:nonzero;stroke:none"
         id="path3428"
         inkscape:connector-curvature="0" />
    </g>
    <g
       id="g3430"
       transform="matrix(1.25,0,0,-1.25,184.43353,120.76964)">
      <path
         d="m 0,0 14.01,0 0,-6.629 -13.9,0 c 0,-1.881 0,-3.348 0,-4.816 0,-9.649 -0.002,-19.299 0,-28.948 0.002,-10.271 2.697,-13.598 12.609,-15.603 0.483,-0.097 0.94,-0.317 1.497,-0.51 l 0,-4.583 c -9.772,-2.78 -20.407,4.4 -21.083,14.583 -0.479,7.207 -0.349,14.458 -0.374,21.689 -0.048,13.839 -0.014,27.679 -0.014,41.518 l 0,4.318 7.255,0 L 0,0 Z"
         style="fill:#ffffff;fill-opacity:1;fill-rule:nonzero;stroke:none"
         id="path3432"
         inkscape:connector-curvature="0" />
    </g>
    <g
       id="g3434"
       transform="matrix(1.25,0,0,-1.25,215.26066,188.97427)">
      <path
         d="m 0,0 c -0.109,0.05 -0.214,0.072 -0.317,0.015 -0.017,-0.032 -0.041,-0.057 -0.071,-0.076 l 0,0 C -0.462,-0.149 -0.537,-0.236 -0.611,-0.323 -0.687,-0.405 -0.759,-0.491 -0.84,-0.568 -2.738,-2.36 -4.483,-4.301 -6.293,-6.179 -6.89,-6.793 -7.53,-7.374 -8.185,-7.911 c -1.439,-1.181 -2.953,-2.276 -4.475,-3.352 -3.577,-2.527 -6.648,-5.579 -9.407,-8.959 -7.26,-8.894 -14.36,-17.907 -20.752,-27.458 -4.645,-6.94 -9.257,-13.902 -14.124,-20.69 -2.553,-3.561 -5.182,-7.054 -7.858,-10.534 -0.552,-0.716 -1.029,-1.39 -1.625,-2.173 -0.514,-0.626 -1.028,-1.252 -1.542,-1.878 -0.289,-0.338 -0.583,-0.671 -0.866,-1.013 -1.531,-1.849 -3.065,-3.696 -4.794,-5.366 -0.816,-0.788 -1.653,-1.553 -2.484,-2.325 -0.137,-0.127 -0.341,-0.246 -0.134,-0.441 2.273,-2.153 3.347,-1.797 5.536,-1.245 1.631,0.411 3.435,1.329 5.113,2.067 3.132,1.376 6.073,3.093 8.921,4.962 2.061,1.352 4.06,2.801 6.025,4.298 2.989,2.277 5.911,4.636 8.753,7.091 2.193,1.895 4.358,3.82 6.504,5.768 3.172,2.879 6.253,5.855 9.191,8.974 2.717,2.885 5.351,5.847 7.899,8.886 2.514,2.997 5.01,6.007 7.362,9.133 3.544,4.709 6.819,9.607 10.086,14.509 0,0 6.171,10.005 7.639,13.55 0.794,1.919 1.178,3.218 1.178,3.218 0.276,0.771 0.869,2.276 0.869,2.276 0,0 0.129,0.329 0.239,0.652 C 5.637,-5.807 2.577,-3.108 0,0"
         style="fill:#ffffff;fill-opacity:1;fill-rule:nonzero;stroke:none"
         id="path3436"
         inkscape:connector-curvature="0" />
    </g>
    <g
       id="g3438"
       transform="matrix(1.25,0,0,-1.25,380.41016,11.838648)">
      <path
         d="m 0,0 c -2.273,2.152 -3.347,1.796 -5.536,1.245 -1.631,-0.412 -3.435,-1.33 -5.113,-2.067 -3.132,-1.376 -6.073,-3.093 -8.921,-4.963 -2.061,-1.352 -4.06,-2.801 -6.025,-4.297 -2.99,-2.278 -5.911,-4.636 -8.753,-7.092 -2.193,-1.894 -4.359,-3.82 -6.504,-5.767 -3.172,-2.88 -6.254,-5.856 -9.191,-8.974 -2.718,-2.885 -5.351,-5.848 -7.899,-8.886 -2.514,-2.997 -5.01,-6.008 -7.362,-9.133 -3.545,-4.709 -6.819,-9.607 -10.086,-14.509 0,0 -6.171,-10.006 -7.639,-13.551 -0.794,-1.918 -1.178,-3.217 -1.178,-3.217 -0.276,-0.771 -0.869,-2.277 -0.869,-2.277 0,0 -0.255,-0.648 -0.355,-1.018 3.508,-2.04 6.686,-4.619 9.401,-7.628 0.034,0.006 0.067,0 0.1,0.018 0.018,0.032 0.042,0.058 0.072,0.077 l 0,0 c 0.074,0.087 0.149,0.174 0.223,0.262 0.076,0.082 0.148,0.168 0.229,0.244 1.898,1.793 3.643,3.733 5.453,5.612 0.597,0.614 1.237,1.195 1.891,1.731 1.44,1.181 2.954,2.277 4.476,3.352 3.577,2.527 6.648,5.58 9.407,8.96 7.26,8.893 14.36,17.907 20.752,27.458 4.645,6.939 9.257,13.902 14.124,20.69 2.553,3.561 5.181,7.053 7.858,10.533 0.552,0.717 1.029,1.39 1.625,2.174 0.514,0.625 1.028,1.251 1.542,1.877 0.289,0.338 0.583,0.672 0.866,1.014 1.531,1.848 3.065,3.696 4.794,5.366 0.816,0.787 1.653,1.552 2.484,2.324 C 0.003,-0.314 0.207,-0.196 0,0"
         style="fill:#ffffff;fill-opacity:1;fill-rule:nonzero;stroke:none"
         id="path3440"
         inkscape:connector-curvature="0" />
    </g>
    <g
       id="g3442"
       transform="matrix(1.25,0,0,-1.25,14.297553,177.02927)">
      <path
         d="m 0,0 0.029,-0.532 c 1.17,-10.66 12.985,-16.447 23.507,-16.447 11.94,0 24.291,6.963 24.291,18.612 0,1.165 -0.169,2.634 -0.464,4.03 -2.361,9.286 -12.797,11.742 -22.691,12.915 -7.135,0.631 -16.056,1.419 -16.632,9.276 -0.235,2.67 0.433,5.057 1.933,6.885 2.658,3.243 7.646,5.249 13.345,5.364 l 0.344,0.003 c 5.995,0 12.641,-2.559 14.579,-8.242 l 7.496,0.284 C 43.369,43.022 32.602,46.924 23.831,46.924 15.698,46.924 8.09,43.78 3.978,38.719 1.348,35.474 0.149,31.524 0.509,27.291 l 0.009,0.002 C 1.515,14.731 13.031,12.585 23.747,11.558 c 6.56,-0.622 14.724,-1.396 16.139,-7.325 0.217,-0.923 0.327,-1.765 0.327,-2.507 0,-7.379 -8.43,-11.789 -16.579,-11.789 -7.068,0 -14.967,3.482 -15.939,9.94 L 7.648,-0.124 7.629,0.143 0,0 Z"
         style="fill:#ffffff;fill-opacity:1;fill-rule:nonzero;stroke:none"
         id="path3444"
         inkscape:connector-curvature="0" />
    </g>
  </g>
</svg>
